<?xml version="1.0" encoding="UTF-8"?>
<!-- Generated by Pixelmator Pro 3.5.11 -->
<svg width="398" height="290" viewBox="0 0 398 290" xmlns="http://www.w3.org/2000/svg">
    <path id="Percorso" fill="none" stroke="currentColor" stroke-width="10"
          d="M 21.26 169.859985 L 73.489998 169.859985 C 82.470001 169.859985 89.75 177.149994 89.75 186.119995 L 89.75 268.72998 C 89.75 277.709991 82.459999 284.98999 73.489998 284.98999 L 21.26 284.98999 C 12.28 284.98999 5 277.699982 5 268.72998 L 5 186.119995 C 5 177.139984 12.29 169.859985 21.26 169.859985 Z"/>
    <path id="path1" fill="none" stroke="currentColor" stroke-width="10"
          d="M 123.849998 108.130005 L 176.089996 108.130005 C 185.070145 108.130005 192.350006 115.409851 192.350006 124.389999 L 192.350006 268.72998 C 192.350006 277.710144 185.070145 284.98999 176.089996 284.98999 L 123.849998 284.98999 C 114.86985 284.98999 107.589996 277.710144 107.589996 268.72998 L 107.589996 124.389999 C 107.589996 115.409851 114.86985 108.130005 123.849998 108.130005 Z"/>
    <path id="path2" fill="none" stroke="currentColor" stroke-width="10"
          d="M 226.429993 4.269989 L 278.670013 4.269989 C 287.650146 4.269989 294.929993 11.549835 294.929993 20.529999 L 294.929993 268.73999 C 294.929993 277.720154 287.650146 285 278.670013 285 L 226.429993 285 C 217.449844 285 210.169998 277.720154 210.169998 268.73999 L 210.169998 20.529999 C 210.169998 11.549835 217.449844 4.269989 226.429993 4.269989 Z"/>
    <path id="path3" fill="none" stroke="currentColor" stroke-width="10"
          d="M 192.350006 20.529999 C 192.350006 11.559998 185.059998 4.269989 176.089996 4.269989 L 21.26 4.269989 C 12.29 4.269989 5 11.559998 5 20.529999 L 5 137.960007 C 5 146.930008 12.29 154.220001 21.26 154.220001 L 73.5 154.220001 C 82.470001 154.220001 89.760002 146.930008 89.760002 137.960007 L 89.760002 109.820007 C 89.760002 98.360001 99.080002 89.029999 110.550003 89.029999 L 176.089996 89.029999 C 185.059998 89.029999 192.350006 81.740005 192.350006 72.770004 L 192.350006 20.529999 Z"/>
    <path id="path4" fill="currentColor" stroke="currentColor"
          d="M 381.420013 47.889999 L 312.809998 47.889999 C 310.049988 47.889999 307.809998 45.649994 307.809998 42.889999 C 307.809998 40.130005 310.049988 37.889984 312.809998 37.889984 L 381.420013 37.889984 C 384.179993 37.889984 386.420013 40.130005 386.420013 42.889999 C 386.420013 45.649994 384.179993 47.889999 381.420013 47.889999 Z"/>
    <path id="path5" fill="currentColor" stroke="currentColor"
          d="M 342.109985 77.199997 L 342.109985 8.589996 C 342.109985 5.829987 344.350006 3.589996 347.109985 3.589996 C 349.869995 3.589996 352.109985 5.829987 352.109985 8.589996 L 352.109985 77.199997 C 352.109985 79.960007 349.869995 82.199997 347.109985 82.199997 C 344.350006 82.199997 342.109985 79.960007 342.109985 77.199997 Z"/>
</svg>
