<?xml version="1.0" encoding="UTF-8"?>
<svg id="Livello_2" data-name="Livello 2" xmlns="http://www.w3.org/2000/svg" viewBox="0 0 299.93 290.73" fill="none" stroke="currentColor"
     stroke-width="15">
    <path
        d="M21.26,170.59h52.23c8.98,0,16.26,7.29,16.26,16.26v82.61c0,8.98-7.29,16.26-16.26,16.26H21.26c-8.98,0-16.26-7.29-16.26-16.26v-82.61c0-8.98,7.29-16.26,16.26-16.26Z"/>
    <rect x="107.59" y="108.86" width="84.76" height="176.86" rx="16.26" ry="16.26"/>
    <rect x="210.17" y="5" width="84.76" height="280.73" rx="16.26" ry="16.26"/>
    <path
        d="M192.35,21.26c0-8.97-7.29-16.26-16.26-16.26H21.26c-8.97,0-16.26,7.29-16.26,16.26v117.43c0,8.97,7.29,16.26,16.26,16.26h52.24c8.97,0,16.26-7.29,16.26-16.26v-28.14c0-11.46,9.32-20.79,20.79-20.79h65.54c8.97,0,16.26-7.29,16.26-16.26V21.26Z"/>
</svg>
