<svg xmlns="http://www.w3.org/2000/svg" width="21.629" height="21.025" viewBox="0 0 21.629 21.025">
  <g id="Raggruppa_757" data-name="Raggruppa 757" transform="translate(0 0)">
    <path id="Tracciato_1246" data-name="Tracciato 1246" d="M2731.51,5.341h-.192a5.8,5.8,0,0,0-5.792,5.792v2.31l-.007,0a2.42,2.42,0,0,0-1.113-.335,1.542,1.542,0,0,0-1.125.5,1.167,1.167,0,0,0-.353,1.088c.108.509.552.92,1.32,1.221.079.031.164.062.252.095.358.132.837.309.92.517a4.819,4.819,0,0,1-1.884,2.53,2.662,2.662,0,0,1-1.659.728h-.159a.8.8,0,0,0-.831.6c-.183.731.136,1.645,1.581,2.014.393.1.7.151.917.188.094.016.206.035.274.051.006.014.013.031.021.052a3.762,3.762,0,0,1,.136.449,1.039,1.039,0,0,0,1.006.934,4.371,4.371,0,0,0,.519-.053,11.387,11.387,0,0,1,1.418-.124,1.759,1.759,0,0,1,.662.082,4.647,4.647,0,0,1,.656.449,5.908,5.908,0,0,0,3.3,1.461l.035,0,.036,0a5.908,5.908,0,0,0,3.3-1.461,4.632,4.632,0,0,1,.656-.449,1.758,1.758,0,0,1,.662-.082,11.4,11.4,0,0,1,1.418.124,4.354,4.354,0,0,0,.519.053,1.039,1.039,0,0,0,1.006-.934,3.583,3.583,0,0,1,.136-.449c.008-.021.015-.039.021-.052.069-.016.18-.035.274-.051.221-.037.524-.088.917-.188,1.445-.369,1.764-1.282,1.581-2.014a.8.8,0,0,0-.831-.6h-.159a2.663,2.663,0,0,1-1.659-.728,4.816,4.816,0,0,1-1.883-2.53c.083-.208.562-.385.92-.517.088-.032.172-.064.252-.095.768-.3,1.212-.712,1.321-1.221a1.169,1.169,0,0,0-.354-1.088,1.542,1.542,0,0,0-1.124-.5,2.423,2.423,0,0,0-1.113.335l-.007,0v-2.31a5.8,5.8,0,0,0-5.792-5.792" transform="translate(-2720.599 -5.098)"/>
    <path id="Tracciato_1247" data-name="Tracciato 1247" d="M2729.157,23.867l-.047,0a6.11,6.11,0,0,1-3.432-1.51,4.853,4.853,0,0,0-.61-.422,1.648,1.648,0,0,0-.563-.061,11.192,11.192,0,0,0-1.386.121,4.414,4.414,0,0,1-.551.055c-.638,0-1.056-.376-1.242-1.117-.027-.107-.054-.217-.1-.349l-.135-.023c-.227-.038-.535-.089-.938-.193a2.481,2.481,0,0,1-1.544-.974,1.677,1.677,0,0,1-.212-1.334,1.046,1.046,0,0,1,1.067-.78l.162,0a2.445,2.445,0,0,0,1.509-.678,4.689,4.689,0,0,0,1.764-2.291,3.6,3.6,0,0,0-.738-.335c-.089-.033-.176-.065-.256-.1a2.1,2.1,0,0,1-1.47-1.4,1.405,1.405,0,0,1,.418-1.309,1.777,1.777,0,0,1,1.3-.571h0a2.231,2.231,0,0,1,.877.2V8.877a6.041,6.041,0,0,1,6.035-6.035h.192a6.042,6.042,0,0,1,6.035,6.035V10.8a2.229,2.229,0,0,1,.877-.2,1.777,1.777,0,0,1,1.3.571,1.4,1.4,0,0,1,.418,1.309,2.094,2.094,0,0,1-1.469,1.4c-.081.031-.167.063-.256.1a3.563,3.563,0,0,0-.738.336,4.69,4.69,0,0,0,1.764,2.29,2.444,2.444,0,0,0,1.512.678l.155,0a1.048,1.048,0,0,1,1.07.78,1.676,1.676,0,0,1-.212,1.334,2.483,2.483,0,0,1-1.544.974c-.4.1-.712.155-.937.193l-.136.023a3.61,3.61,0,0,0-.1.347c-.186.743-.6,1.119-1.242,1.119a4.421,4.421,0,0,1-.551-.055,11.179,11.179,0,0,0-1.386-.121,1.6,1.6,0,0,0-.564.061,4.769,4.769,0,0,0-.608.421,6.112,6.112,0,0,1-3.432,1.51Zm-4.652-2.48a1.961,1.961,0,0,1,.761.1,4.575,4.575,0,0,1,.7.477,5.706,5.706,0,0,0,3.163,1.412h.048a5.707,5.707,0,0,0,3.163-1.412,4.587,4.587,0,0,1,.7-.477,1.969,1.969,0,0,1,.761-.1,11.618,11.618,0,0,1,1.45.126,4.269,4.269,0,0,0,.487.051c.512,0,.673-.36.771-.75a3.836,3.836,0,0,1,.145-.477c.01-.026.019-.048.026-.064l.049-.11.118-.027c.076-.018.189-.037.289-.054.217-.036.514-.086.9-.184,1.6-.409,1.48-1.42,1.406-1.72a.558.558,0,0,0-.6-.412l-.155,0h0a2.89,2.89,0,0,1-1.806-.777,5.063,5.063,0,0,1-1.971-2.66l-.021-.078.03-.075c.114-.286.53-.458,1.062-.654.086-.032.169-.063.247-.093.687-.269,1.081-.621,1.172-1.045a.923.923,0,0,0-.289-.867,1.309,1.309,0,0,0-.952-.426,2.2,2.2,0,0,0-1,.3l-.012.006-.353.179,0-.395V8.877a5.555,5.555,0,0,0-5.549-5.549h-.192a5.555,5.555,0,0,0-5.549,5.549v2.707l-.37-.189a2.2,2.2,0,0,0-.992-.3h0a1.308,1.308,0,0,0-.951.426.922.922,0,0,0-.289.867c.09.424.485.776,1.171,1.045.078.03.161.061.248.093.531.2.947.369,1.061.654l.03.075-.021.078a5.064,5.064,0,0,1-1.971,2.66,2.884,2.884,0,0,1-1.806.777l-.162,0a.555.555,0,0,0-.592.412c-.075.3-.2,1.31,1.405,1.72.384.1.681.148.9.184.1.017.213.036.289.054l.117.027.05.11c.007.017.016.038.026.064a3.988,3.988,0,0,1,.145.476c.1.39.259.75.771.75a4.366,4.366,0,0,0,.487-.051,11.622,11.622,0,0,1,1.45-.126" transform="translate(-2718.342 -2.842)"/>
  </g>
</svg>
