<svg xmlns="http://www.w3.org/2000/svg" width="19.343" height="16.783" viewBox="0 0 19.343 16.783">
  <path id="Tracciato_1280" data-name="Tracciato 1280" d="M2705.549,1114.97l.956,1.219s1.2-.932,1.626-.932c.267,0,.837.311,1.2,1.387s1.869,6.654,1.961,6.911c.413,1.154.957,3.3,2.63,3.61s3.8-1.387,4.974-2.63,5.787-6.552,5.978-9.732c.177-2.94-.788-3.623-1.219-3.9a4.055,4.055,0,0,0-3.348-.239,5.88,5.88,0,0,0-3.635,4.352s1.7-.622,2.319-.024.454,1.913-.072,2.894-2.009,3.252-2.559,3.323-.98-1-1.052-1.291-.98-4.233-1.315-6.528-1.793-2.678-2.487-2.678-1.889.526-5.954,4.257" transform="translate(-2705.549 -1110.42)"/>
</svg>
