<svg id="Raggruppa_811" data-name="Raggruppa 811" xmlns="http://www.w3.org/2000/svg" xmlns:xlink="http://www.w3.org/1999/xlink" width="19.415" height="20.567" viewBox="0 0 19.415 20.567">
  <defs>
    <clipPath id="clip-path">
      <rect id="Rettangolo_1254" data-name="Rettangolo 1254" width="19.415" height="20.567" transform="translate(0 0)"/>
    </clipPath>
  </defs>
  <g id="Raggruppa_811-2" data-name="Raggruppa 811" transform="translate(0 0)" clip-path="url(#clip-path)">
    <path id="Tracciato_1293" data-name="Tracciato 1293" d="M19.181,1.242A13.689,13.689,0,0,0,17.947.169a.678.678,0,0,0-.518-.123A51.548,51.548,0,0,1,9.72.724,51.5,51.5,0,0,1,2,.015a.666.666,0,0,0-.524.123A13.711,13.711,0,0,0,.222,1.249.654.654,0,0,0,0,1.662v1.5S0,4.227.037,4.844a40.872,40.872,0,0,0,2.43,12.335.66.66,0,0,0,.185.271c1.961,1.708,5.008,3.121,7.068,3.121s5.082-1.406,7.056-3.121a.66.66,0,0,0,.185-.271A40.872,40.872,0,0,0,19.378,4.844c0-.617.037-1.159.037-1.665V1.668a.654.654,0,0,0-.228-.419ZM8.264,12.862l-.037.062c-.771,1.369-2.017,1.542-3.417.987s-2.578-1.7-2.1-3.306c.469-1.443,2.714-.863,3.762-.617,1.468.37,2.59,1.233,1.8,2.8.031-.037.043-.049-.025.074Zm8.462-1a3.533,3.533,0,0,1-3.269,2.381,2.528,2.528,0,0,1-2.541-2.467v-.1c.043-1.56,2.344-1.85,3.5-1.955C15.949,9.575,17.152,10.093,16.726,11.863Z" transform="translate(0 -0.004)"/>
  </g>
</svg>
