<svg xmlns="http://www.w3.org/2000/svg" xmlns:xlink="http://www.w3.org/1999/xlink" width="26.345" height="11.429" viewBox="0 0 26.345 11.429">
  <defs>
    <clipPath id="clip-path">
      <rect id="Rettangolo_1246" data-name="Rettangolo 1246" width="26.345" height="11.429"/>
    </clipPath>
  </defs>
  <g id="Raggruppa_802" data-name="Raggruppa 802" opacity="0.9">
    <g id="Raggruppa_723" data-name="Raggruppa 723">
      <g id="Raggruppa_722" data-name="Raggruppa 722" clip-path="url(#clip-path)">
        <path id="Tracciato_1133" data-name="Tracciato 1133" d="M2154.485,1139.076l-.162,1.459.162,1.459a.081.081,0,0,0,.162,0l.243-1.459-.243-1.459a.081.081,0,1,0-.162,0m.973-.892-.243,2.351.243,2.351a.081.081,0,0,0,.162,0l.324-2.351-.324-2.351a.08.08,0,0,0-.081-.081l-.081.081m3.081-.324-.163,2.675.163,2.837a.162.162,0,1,0,.324,0l.324-2.837-.243-2.675a.175.175,0,0,0-.162-.162c-.162,0-.243.081-.243.162m-2.027-.162-.243,2.837.243,2.675a.174.174,0,0,0,.162.162.283.283,0,0,0,.081-.162l.243-2.675-.243-2.837a.174.174,0,0,0-.162-.162c0,.081-.081.081-.081.162m.973-.081-.243,2.918.243,2.756a.162.162,0,0,0,.324,0l.243-2.756-.243-2.918a.175.175,0,0,0-.162-.162c-.081,0-.081.081-.162.162m2.107-1.459-.243,4.377.243,2.837a.174.174,0,0,0,.162.162c.162,0,.243-.081.243-.162l.243-2.837-.243-4.377a.174.174,0,0,0-.162-.162c-.162,0-.243.081-.243.162m1.054-.973-.162,5.35.162,2.837a.215.215,0,0,0,.243.243.259.259,0,0,0,.243-.243l.243-2.837-.243-5.35a.243.243,0,1,0-.487,0m4.3-.243-.162,5.593.162,2.675a.324.324,0,1,0,.648,0l.162-2.675-.162-5.674a.348.348,0,0,0-.324-.324c-.243.081-.324.162-.324.405m-3.243-.243-.162,5.836.162,2.756a.243.243,0,1,0,.487,0l.162-2.756-.162-5.836a.215.215,0,0,0-.243-.243.259.259,0,0,0-.243.243m2.108,0-.162,5.836.162,2.756a.324.324,0,0,0,.648,0l.162-2.756-.162-5.836a.324.324,0,0,0-.648,0m-1.053-.162-.163,6,.163,2.756a.243.243,0,1,0,.486,0l.162-2.756-.162-6a.243.243,0,1,0-.486,0m3.242-.729-.162,6.728.162,2.675a.324.324,0,1,0,.648,0l.162-2.675-.162-6.728a.324.324,0,1,0-.648,0m1.135-.568-.162,7.3.162,2.675a.324.324,0,1,0,.649,0l.162-2.675-.162-7.3a.349.349,0,0,0-.324-.324h-.081c-.162,0-.243.162-.243.324m1.3-.729c-.243.081-.324.162-.324.405v10.295a.539.539,0,0,0,.324.405h9a3.242,3.242,0,0,0,0-6.485,2.962,2.962,0,0,0-1.216.243,5.662,5.662,0,0,0-5.674-5.188h-.405a6.311,6.311,0,0,0-1.7.324" transform="translate(-2154.323 -1132.187)"/>
      </g>
    </g>
  </g>
</svg>
