<svg xmlns="http://www.w3.org/2000/svg" width="20.483" height="20.474" viewBox="0 0 20.483 20.474">
  <g id="Raggruppa_820" data-name="Raggruppa 820" transform="translate(2138.333 48.487)">
    <path id="Tracciato_1238" data-name="Tracciato 1238" d="M1671.379,14.534a5.432,5.432,0,0,0-1.656-3.5,5.679,5.679,0,0,0-3.756-1.525,73.886,73.886,0,0,0-10.131.113,5.169,5.169,0,0,0-4.431,3.978c-.488,1.743-.391,9.775-.106,11.5a5.185,5.185,0,0,0,4.115,4.467c1.615.417,9.556.364,11.338.075a5.193,5.193,0,0,0,4.487-4.1c.468-1.789.3-9.4.141-11.014m-1.885,10.235a3.468,3.468,0,0,1-3.26,3.094c-1.652.181-9.03.281-10.563-.148a3.359,3.359,0,0,1-2.548-2.893,68.545,68.545,0,0,1,0-10.336,3.461,3.461,0,0,1,3.245-3.08,72.178,72.178,0,0,1,10.082.041,3.468,3.468,0,0,1,3.088,3.265,73.529,73.529,0,0,1-.042,10.057m-8.188-10.384a5.252,5.252,0,1,0,5.249,5.255,5.252,5.252,0,0,0-5.249-5.255m-.036,8.644a3.4,3.4,0,1,1,3.427-3.366,3.4,3.4,0,0,1-3.427,3.366m6.723-8.843a1.23,1.23,0,1,1-1.227-1.233,1.23,1.23,0,0,1,1.227,1.233" transform="translate(-3789.396 -57.884)"/>
    <path id="Tracciato_1239" data-name="Tracciato 1239" d="M1671.379,14.534a5.432,5.432,0,0,0-1.656-3.5,5.679,5.679,0,0,0-3.756-1.525,73.886,73.886,0,0,0-10.131.113,5.169,5.169,0,0,0-4.431,3.978c-.488,1.743-.391,9.775-.106,11.5a5.185,5.185,0,0,0,4.115,4.467c1.615.417,9.556.364,11.338.075a5.193,5.193,0,0,0,4.487-4.1c.468-1.789.3-9.4.141-11.014m-1.885,10.235a3.468,3.468,0,0,1-3.26,3.094c-1.652.181-9.03.281-10.563-.148a3.359,3.359,0,0,1-2.548-2.893,68.545,68.545,0,0,1,0-10.336,3.461,3.461,0,0,1,3.245-3.08,72.178,72.178,0,0,1,10.082.041,3.468,3.468,0,0,1,3.088,3.265,73.529,73.529,0,0,1-.042,10.057m-8.188-10.384a5.252,5.252,0,1,0,5.249,5.255,5.252,5.252,0,0,0-5.249-5.255m-.036,8.644a3.4,3.4,0,1,1,3.427-3.366,3.4,3.4,0,0,1-3.427,3.366m6.723-8.843a1.23,1.23,0,1,1-1.227-1.233,1.23,1.23,0,0,1,1.227,1.233" transform="translate(-3789.396 -57.884)"/>
  </g>
</svg>
