<svg xmlns="http://www.w3.org/2000/svg" width="10.689" height="20.473" viewBox="0 0 10.689 20.473">
  <path id="Tracciato_1106" data-name="Tracciato 1106" d="M8.524,7.721c.634-.021,1.268,0,1.9-.006h.262v-3.3c-.339-.034-.693-.083-1.048-.1-.65-.029-1.3-.061-1.953-.046a4.786,4.786,0,0,0-2.757.852A4.126,4.126,0,0,0,3.274,7.877,9.624,9.624,0,0,0,3.16,9.292c-.018.74,0,1.481,0,2.221v.277H0v3.685H3.139v9.263H6.974V15.491H10.1c.161-1.225.317-2.439.482-3.7h-.7c-.889,0-2.932,0-2.932,0s.009-1.827.031-2.619c.031-1.086.675-1.417,1.544-1.448" transform="translate(0 -4.266)" fill-rule="evenodd"/>
</svg>
