<svg xmlns="http://www.w3.org/2000/svg" width="19.375" height="18.516" viewBox="0 0 19.375 18.516">
  <g id="Raggruppa_824" data-name="Raggruppa 824" transform="translate(1831.317 47.73)">
    <g id="Raggruppa_768" data-name="Raggruppa 768" transform="translate(-1831.317 -47.73)">
      <path id="Tracciato_1174" data-name="Tracciato 1174" d="M4362.235,116.448l-4.966-3.2a.444.444,0,0,0-.52.027l-3.338,2.686a.445.445,0,0,0,.038.721l4.966,3.2a.446.446,0,0,0,.521-.027l3.338-2.687a.445.445,0,0,0-.038-.721" transform="translate(-4353.245 -105.974)"/>
      <path id="Tracciato_1175" data-name="Tracciato 1175" d="M4453.665,117.169l3.338,2.687a.446.446,0,0,0,.521.027l4.965-3.2a.445.445,0,0,0,.038-.721l-3.338-2.686a.444.444,0,0,0-.52-.027l-4.966,3.2a.445.445,0,0,0-.038.721" transform="translate(-4443.318 -105.974)"/>
      <path id="Tracciato_1176" data-name="Tracciato 1176" d="M4362.272,45.054l-3.338-2.686a.445.445,0,0,0-.52-.027l-4.966,3.2a.445.445,0,0,0-.038.721l3.338,2.687a.446.446,0,0,0,.521.027l4.965-3.2a.445.445,0,0,0,.038-.721" transform="translate(-4353.244 -42.269)"/>
      <path id="Tracciato_1177" data-name="Tracciato 1177" d="M4462.489,45.542l-4.966-3.2a.444.444,0,0,0-.52.027l-3.338,2.686a.445.445,0,0,0,.038.721l4.966,3.2a.445.445,0,0,0,.52-.027l3.338-2.687a.445.445,0,0,0-.038-.721" transform="translate(-4443.318 -42.268)"/>
      <path id="Tracciato_1178" data-name="Tracciato 1178" d="M4395.345,156.372l-3.738,2.982a.4.4,0,0,1-.471.024l-.921-.594a.4.4,0,0,0-.623.339v.321a.4.4,0,0,0,.194.345l5.566,3.374a.4.4,0,0,0,.418,0l5.566-3.374a.4.4,0,0,0,.195-.345v-.287a.4.4,0,0,0-.623-.339l-.867.559a.4.4,0,0,1-.472-.024l-3.721-2.981a.4.4,0,0,0-.5,0" transform="translate(-4385.901 -144.706)"/>
    </g>
    <g id="Raggruppa_769" data-name="Raggruppa 769" transform="translate(-1831.317 -47.73)">
      <path id="Tracciato_1174-2" data-name="Tracciato 1174" d="M4362.235,116.448l-4.966-3.2a.444.444,0,0,0-.52.027l-3.338,2.686a.445.445,0,0,0,.038.721l4.966,3.2a.446.446,0,0,0,.521-.027l3.338-2.687a.445.445,0,0,0-.038-.721" transform="translate(-4353.245 -105.974)"/>
      <path id="Tracciato_1175-2" data-name="Tracciato 1175" d="M4453.665,117.169l3.338,2.687a.446.446,0,0,0,.521.027l4.965-3.2a.445.445,0,0,0,.038-.721l-3.338-2.686a.444.444,0,0,0-.52-.027l-4.966,3.2a.445.445,0,0,0-.038.721" transform="translate(-4443.318 -105.974)"/>
      <path id="Tracciato_1176-2" data-name="Tracciato 1176" d="M4362.272,45.054l-3.338-2.686a.445.445,0,0,0-.52-.027l-4.966,3.2a.445.445,0,0,0-.038.721l3.338,2.687a.446.446,0,0,0,.521.027l4.965-3.2a.445.445,0,0,0,.038-.721" transform="translate(-4353.244 -42.269)"/>
      <path id="Tracciato_1177-2" data-name="Tracciato 1177" d="M4462.489,45.542l-4.966-3.2a.444.444,0,0,0-.52.027l-3.338,2.686a.445.445,0,0,0,.038.721l4.966,3.2a.445.445,0,0,0,.52-.027l3.338-2.687a.445.445,0,0,0-.038-.721" transform="translate(-4443.318 -42.268)"/>
      <path id="Tracciato_1178-2" data-name="Tracciato 1178" d="M4395.345,156.372l-3.738,2.982a.4.4,0,0,1-.471.024l-.921-.594a.4.4,0,0,0-.623.339v.321a.4.4,0,0,0,.194.345l5.566,3.374a.4.4,0,0,0,.418,0l5.566-3.374a.4.4,0,0,0,.195-.345v-.287a.4.4,0,0,0-.623-.339l-.867.559a.4.4,0,0,1-.472-.024l-3.721-2.981a.4.4,0,0,0-.5,0" transform="translate(-4385.901 -144.706)"/>
    </g>
  </g>
</svg>
