<svg xmlns="http://www.w3.org/2000/svg" width="22.452" height="14.874" viewBox="0 0 22.452 14.874">
  <g id="Raggruppa_793" data-name="Raggruppa 793" transform="translate(0 0)">
    <path id="Tracciato_1155" data-name="Tracciato 1155" d="M4896.486,690.524a.982.982,0,0,1-1.352.327c-3.7-2.263-8.364-2.774-13.854-1.521a.983.983,0,0,1-.437-1.916c6.007-1.373,11.16-.782,15.316,1.758a.983.983,0,0,1,.326,1.352" transform="translate(-4878.359 -676.121)"/>
    <path id="Tracciato_1156" data-name="Tracciato 1156" d="M4891.71,633.623a1.23,1.23,0,0,1-1.691.4,20.7,20.7,0,0,0-15.713-1.838,1.229,1.229,0,1,1-.714-2.352,23,23,0,0,1,17.714,2.095,1.23,1.23,0,0,1,.4,1.69" transform="translate(-4871.653 -623.514)"/>
    <path id="Tracciato_1157" data-name="Tracciato 1157" d="M4880.985,573.643c-5.083-3.019-13.467-3.3-18.32-1.823a1.475,1.475,0,1,1-.856-2.823c5.57-1.691,14.83-1.364,20.682,2.109a1.475,1.475,0,0,1-1.505,2.537" transform="translate(-4860.761 -568.005)"/>
  </g>
</svg>
