<svg xmlns="http://www.w3.org/2000/svg" xmlns:xlink="http://www.w3.org/1999/xlink" width="24" height="19" viewBox="0 0 24 19">
  <defs>
    <clipPath id="clip-path">
      <rect id="Rettangolo_897" data-name="Rettangolo 897" width="24" height="19" transform="translate(0 0.399)"/>
    </clipPath>
  </defs>
  <g id="Raggruppa_607" data-name="Raggruppa 607" transform="translate(0 -0.399)">
    <g id="Raggruppa_513" data-name="Raggruppa 513" transform="translate(0 0)" clip-path="url(#clip-path)">
      <path id="Tracciato_1029" data-name="Tracciato 1029" d="M2.425,19.4a2.339,2.339,0,0,1-1.713-.712A2.339,2.339,0,0,1,0,16.974V2.425A2.339,2.339,0,0,1,.712.712,2.339,2.339,0,0,1,2.425,0h19.4a2.339,2.339,0,0,1,1.713.712,2.339,2.339,0,0,1,.712,1.713V16.974A2.43,2.43,0,0,1,21.823,19.4Zm9.7-8.487L2.425,4.85V16.974h19.4V4.85Zm0-2.425,9.7-6.062H2.425ZM2.425,4.85v0Z" transform="translate(0 0)"/>
    </g>
  </g>
</svg>
