<svg xmlns="http://www.w3.org/2000/svg" xmlns:xlink="http://www.w3.org/1999/xlink" width="25" height="31" viewBox="0 0 25 31">
  <defs>
    <clipPath id="clip-path">
      <rect id="Rettangolo_1305" data-name="Rettangolo 1305" width="25" height="31" transform="translate(0 0)"/>
    </clipPath>
  </defs>
  <g id="Raggruppa_937" data-name="Raggruppa 937" transform="translate(0 -0.204)">
    <g id="Raggruppa_893" data-name="Raggruppa 893" transform="translate(0 0.204)" clip-path="url(#clip-path)">
      <path id="Tracciato_1314" data-name="Tracciato 1314" d="M10.844,19.21A27.151,27.151,0,0,0,16.635,14.1,7.59,7.59,0,0,0,18.59,9.489a6.274,6.274,0,0,0-2.169-4.91,8.086,8.086,0,0,0-5.577-1.924A8.086,8.086,0,0,0,5.267,4.578,6.274,6.274,0,0,0,3.1,9.489,7.59,7.59,0,0,0,5.053,14.1a27.151,27.151,0,0,0,5.791,5.109m0,3.351a34.492,34.492,0,0,1-8.152-6.7A10.08,10.08,0,0,1,0,9.489,8.7,8.7,0,0,1,3.021,2.67,11.376,11.376,0,0,1,10.844,0a11.376,11.376,0,0,1,7.823,2.67,8.7,8.7,0,0,1,3.021,6.819A10.08,10.08,0,0,1,19,15.859a34.492,34.492,0,0,1-8.152,6.7m0-10.617a3.258,3.258,0,0,0,2.189-.779,2.388,2.388,0,0,0,0-3.75,3.258,3.258,0,0,0-2.189-.779,3.258,3.258,0,0,0-2.189.779,2.388,2.388,0,0,0,0,3.75,3.258,3.258,0,0,0,2.189.779M0,23.888H21.688v2.654H0Z" transform="translate(1.91 2.12)"/>
    </g>
  </g>
</svg>
