<svg xmlns="http://www.w3.org/2000/svg" width="12.796" height="20.883" viewBox="0 0 12.796 20.883">
  <path id="Tracciato_1277" data-name="Tracciato 1277" d="M609.124,1084.944v3.287l-.019.007q-.586.274-1.192.5a9.526,9.526,0,0,1-2.98.609l-.272.014c-.2,0-.622,0-.636-.005a9.164,9.164,0,0,1-.947-.075,6.864,6.864,0,0,1-1.508-.369,5.2,5.2,0,0,1-2.026-1.327,3.239,3.239,0,0,1-.851-1.654,8.239,8.239,0,0,1-.123-1.473c0-2.451,0-4.959,0-7.41h-2.242v-2.99c.248-.1.5-.184.74-.3a5.629,5.629,0,0,0,2.811-2.817,7.577,7.577,0,0,0,.566-1.971c.027-.165.049-.33.073-.5h2.961v5.29h4.954v3.279h-4.957s0,5.833.008,6.027a10.2,10.2,0,0,0,.1,1.325,1.545,1.545,0,0,0,.707,1.1,2.847,2.847,0,0,0,1.282.453,4.476,4.476,0,0,0,1.371-.077,6.161,6.161,0,0,0,2.179-.933" transform="translate(-596.328 -1068.482)"/>
</svg>
