<svg xmlns="http://www.w3.org/2000/svg" xmlns:xlink="http://www.w3.org/1999/xlink" width="19.15" height="21.64" viewBox="0 0 19.15 21.64">
  <defs>
    <clipPath id="clip-path">
      <rect id="Rettangolo_1243" data-name="Rettangolo 1243" width="16.235" height="20.775"/>
    </clipPath>
  </defs>
  <g id="Raggruppa_789" data-name="Raggruppa 789" transform="translate(0 0)">
    <g id="Raggruppa_788" data-name="Raggruppa 788" transform="translate(2.915 0.865)" opacity="0.8">
      <g id="Raggruppa_720" data-name="Raggruppa 720">
        <g id="Raggruppa_719" data-name="Raggruppa 719" clip-path="url(#clip-path)">
          <path id="Tracciato_1121" data-name="Tracciato 1121" d="M4389.385,552.22a8.5,8.5,0,0,0,4.958,1.586V550.25a5,5,0,0,1-1.041-.109v2.8a8.5,8.5,0,0,1-4.957-1.586v7.256a6.578,6.578,0,0,1-10.237,5.461,6.577,6.577,0,0,0,11.278-4.595V552.22Zm1.285-3.587a4.954,4.954,0,0,1-1.285-2.9v-.457h-.986a4.978,4.978,0,0,0,2.271,3.359M4380.4,561.286a3.009,3.009,0,0,1,3.308-4.685v-3.635a6.668,6.668,0,0,0-1.041-.06v2.829a3.007,3.007,0,0,0-2.267,5.551" transform="translate(-4378.108 -545.274)" fill-rule="evenodd"/>
        </g>
      </g>
    </g>
    <path id="Tracciato_1270" data-name="Tracciato 1270" d="M4370.364,551.354a8.5,8.5,0,0,0,4.958,1.586v-2.8a7.843,7.843,0,0,1-4.9-4.867h-2.592v14.2a4.254,4.254,0,1,1-3.136-3.741v-2.829a6.155,6.155,0,1,0,5.673,5.705Z" transform="translate(-4357.212 -544.408)" fill-rule="evenodd"/>
    <path id="Tracciato_1271" data-name="Tracciato 1271" d="M4365.337,541.838v-.757a4.958,4.958,0,0,1-2.632-.752,4.973,4.973,0,0,0,2.632,1.508m-4.9-4.867c-.023-.135-.042-.271-.055-.408V536.1H4356.8v14.2a3.01,3.01,0,0,1-4.361,2.675,3.009,3.009,0,0,0,5.4-1.81v-14.2Zm-5.728,7.631V543.8a6.573,6.573,0,0,0-4.562,11.971,6.571,6.571,0,0,1,4.563-11.166" transform="translate(-4347.228 -536.105)" fill-rule="evenodd"/>
  </g>
</svg>
