<svg xmlns="http://www.w3.org/2000/svg" width="20.801" height="20.753" viewBox="0 0 20.801 20.753">
  <g id="Raggruppa_822" data-name="Raggruppa 822" transform="translate(2038.184 49.209)">
    <g id="Raggruppa_751" data-name="Raggruppa 751" transform="translate(-2038.184 -49.209)">
      <path id="Tracciato_1242" data-name="Tracciato 1242" d="M2204.822,15.176h4.316V29.039h-4.316Zm2.158-6.889a2.5,2.5,0,1,1-2.5,2.5,2.5,2.5,0,0,1,2.5-2.5" transform="translate(-2204.479 -8.287)"/>
      <path id="Tracciato_1243" data-name="Tracciato 1243" d="M2271.218,67.962h4.133v1.9h.057a4.531,4.531,0,0,1,4.081-2.24c4.363,0,5.167,2.869,5.167,6.6v7.6h-4.306v-6.74c0-1.609-.032-3.676-2.24-3.676-2.243,0-2.585,1.751-2.585,3.559v6.857h-4.307Z" transform="translate(-2263.855 -61.073)"/>
    </g>
  </g>
</svg>
