<svg xmlns="http://www.w3.org/2000/svg" xmlns:xlink="http://www.w3.org/1999/xlink" width="26" height="27" viewBox="0 0 26 27">
  <defs>
    <clipPath id="clip-path">
      <rect id="Rettangolo_905" data-name="Rettangolo 905" width="26" height="27" transform="translate(0 0.15)"/>
    </clipPath>
  </defs>
  <g id="Raggruppa_535" data-name="Raggruppa 535" transform="translate(0.176 0.174)">
    <g id="Raggruppa_534" data-name="Raggruppa 534" transform="translate(-0.176 -0.324)" clip-path="url(#clip-path)">
      <path id="Tracciato_1045" data-name="Tracciato 1045" d="M13.153,13.153a6.334,6.334,0,0,1-4.645-1.932A6.334,6.334,0,0,1,6.577,6.577,6.334,6.334,0,0,1,8.509,1.932,6.334,6.334,0,0,1,13.153,0,6.334,6.334,0,0,1,17.8,1.932,6.334,6.334,0,0,1,19.73,6.577,6.334,6.334,0,0,1,17.8,11.221a6.334,6.334,0,0,1-4.645,1.932M0,26.306V21.7a4.9,4.9,0,0,1,2.631-4.357A24.421,24.421,0,0,1,7.81,15.434a22.755,22.755,0,0,1,10.687,0,24.421,24.421,0,0,1,5.179,1.912A4.9,4.9,0,0,1,26.306,21.7v4.6Zm3.288-3.288h19.73V21.7a1.556,1.556,0,0,0-.225-.822,1.6,1.6,0,0,0-.6-.575,21.424,21.424,0,0,0-4.48-1.666,19.062,19.062,0,0,0-9.125,0,21.425,21.425,0,0,0-4.48,1.666,1.6,1.6,0,0,0-.6.575,1.556,1.556,0,0,0-.225.822ZM13.153,9.865A3.173,3.173,0,0,0,15.476,8.9a3.173,3.173,0,0,0,.965-2.323,3.173,3.173,0,0,0-.965-2.323,3.279,3.279,0,0,0-4.646,0,3.173,3.173,0,0,0-.965,2.323A3.173,3.173,0,0,0,10.83,8.9a3.173,3.173,0,0,0,2.323.965" transform="translate(0.229 0.421)"/>
    </g>
  </g>
</svg>
