<svg xmlns="http://www.w3.org/2000/svg" width="22.532" height="22.652" viewBox="0 0 22.532 22.652">
  <g id="Raggruppa_823" data-name="Raggruppa 823" transform="translate(1985.068 50.295)">
    <g id="Raggruppa_753" data-name="Raggruppa 753" transform="translate(-1985.068 -50.295)">
      <path id="Tracciato_1244" data-name="Tracciato 1244" d="M3267.575,22.656c.127-.489.237-.914.351-1.34.373-1.36.755-2.718,1.109-4.082a1,1,0,0,0-.067-.656,11.226,11.226,0,1,1,4.853,4.729,1.1,1.1,0,0,0-.691-.075c-2.975.746-4.953,1.307-5.553,1.424m2.616-2.581c1.119-.291,2.15-.549,3.171-.837a.924.924,0,0,1,.767.112,9.2,9.2,0,0,0,6.221,1.174,9.39,9.39,0,1,0-9.676-4.744,1.956,1.956,0,0,1,.21,1.783c-.279.791-.451,1.615-.694,2.511" transform="translate(-3267.575 -0.004)" fill-rule="evenodd"/>
      <path id="Tracciato_1245" data-name="Tracciato 1245" d="M3328.99,67.576c-2.193-.078-5.687-1.81-8.08-5.967a3.374,3.374,0,0,1,.518-4.319,1.561,1.561,0,0,1,1.443-.213c.121.018.248.2.309.342.319.725.633,1.451.91,2.194.147.392-.123.761-.691,1.415a.486.486,0,0,0-.077.638,7.667,7.667,0,0,0,3.9,3.347.469.469,0,0,0,.592-.159c.9-1.094.988-1.415,1.46-1.19,2.269,1.085,2.447,1.13,2.457,1.387a2.473,2.473,0,0,1-2.74,2.523" transform="translate(-3314.761 -50.952)" fill-rule="evenodd"/>
    </g>
  </g>
</svg>
