<svg xmlns="http://www.w3.org/2000/svg" width="22.082" height="16.826" viewBox="0 0 22.082 16.826">
  <path id="Tracciato_1258" data-name="Tracciato 1258" d="M1644.92,558.133a18.136,18.136,0,0,0-4.555-1.407,11.672,11.672,0,0,0-.583,1.2,17.116,17.116,0,0,0-5.048,0,12.943,12.943,0,0,0-.6-1.2,17.99,17.99,0,0,0-4.559,1.413,18.619,18.619,0,0,0-3.266,12.59,18.315,18.315,0,0,0,5.589,2.821,13.74,13.74,0,0,0,1.2-1.942,11.84,11.84,0,0,1-1.884-.9q.235-.178.455-.357a13.073,13.073,0,0,0,11.179,0c.15.124.305.243.461.359a11.813,11.813,0,0,1-1.888.9,13.567,13.567,0,0,0,1.2,1.938,18.211,18.211,0,0,0,5.589-2.821,18.593,18.593,0,0,0-3.286-12.6M1633.588,568.2a2.242,2.242,0,1,1,1.986-2.23,2.12,2.12,0,0,1-1.986,2.23m7.336,0a2.243,2.243,0,1,1,1.984-2.23,2.12,2.12,0,0,1-1.984,2.23" transform="translate(-1626.217 -556.726)"/>
</svg>
