<svg xmlns="http://www.w3.org/2000/svg" xmlns:xlink="http://www.w3.org/1999/xlink" width="21" height="21" viewBox="0 0 21 21">
  <defs>
    <clipPath id="clip-path">
      <rect id="Rettangolo_896" data-name="Rettangolo 896" width="21" height="21" transform="translate(0.419 0.419)"/>
    </clipPath>
  </defs>
  <g id="Raggruppa_511" data-name="Raggruppa 511" transform="translate(-0.419 -0.326)">
    <g id="Raggruppa_510" data-name="Raggruppa 510" transform="translate(0 -0.094)" clip-path="url(#clip-path)">
      <path id="Tracciato_1028" data-name="Tracciato 1028" d="M20.088,21.332a17.778,17.778,0,0,1-7.318-1.615A21.886,21.886,0,0,1,6.192,15.14,21.911,21.911,0,0,1,1.614,8.562,17.8,17.8,0,0,1,0,1.244,1.215,1.215,0,0,1,1.244,0h4.8a1.1,1.1,0,0,1,.741.282A1.079,1.079,0,0,1,7.17.948L7.94,5.1a2.1,2.1,0,0,1-.03.8,1.25,1.25,0,0,1-.326.563l-2.874,2.9a14.228,14.228,0,0,0,1.408,2.119,20.725,20.725,0,0,0,1.792,1.97,20.848,20.848,0,0,0,1.926,1.7,18.956,18.956,0,0,0,2.133,1.436l2.785-2.785a1.649,1.649,0,0,1,.7-.4,1.918,1.918,0,0,1,.845-.075l4.089.83a1.369,1.369,0,0,1,.681.43,1.041,1.041,0,0,1,.267.7v4.8a1.215,1.215,0,0,1-1.244,1.244M3.585,7.111,5.54,5.155l-.5-2.785H2.4a24.283,24.283,0,0,0,.415,2.4,13,13,0,0,0,.77,2.341M14.192,17.717a14.784,14.784,0,0,0,2.355.8,14.431,14.431,0,0,0,2.415.385V16.3l-2.785-.563Z" transform="translate(0 0.087)"/>
    </g>
  </g>
</svg>
