<svg xmlns="http://www.w3.org/2000/svg" width="19.209" height="19.608" viewBox="0 0 19.209 19.608">
  <g id="Raggruppa_785" data-name="Raggruppa 785" transform="translate(0 0)">
    <path id="Tracciato_1265" data-name="Tracciato 1265" d="M3815.2,546.728l.352-.425,0,0,.033-.031q.48-.525,1.008-1a.042.042,0,0,0,.034-.04v0l.182-.142h0l.028-.025a.893.893,0,0,0,.186-.146l.3-.23a.312.312,0,0,0,.123-.082l.777-.483a3.281,3.281,0,0,0,.4-.212c.02,0,.044,0,.053-.026l.347-.161.831-.322a2.832,2.832,0,0,0,.412-.125l.363-.1a.7.7,0,0,0,.242-.054c.068-.033.15,0,.215-.046a1.574,1.574,0,0,0,.4-.081l.292-.033a2.637,2.637,0,0,0,.429-.027,2.759,2.759,0,0,1,.454-.027c.017,0,.024,0,.028-.02l.012,0,.013,0c.009.013.019.017.03,0h.452a.078.078,0,0,0,.09.011l.119,0,.035.006.506.032c.111.051.236,0,.349.046l.3.053c.291.021.569.113.855.161a1.735,1.735,0,0,0,.4.107,1.649,1.649,0,0,0,.428.138.163.163,0,0,0,.132.057.931.931,0,0,0,.242.094,2.206,2.206,0,0,0,.4.168l.8.421a.053.053,0,0,0,.058.037.1.1,0,0,0,.077.035l0,0a1.039,1.039,0,0,0,.248.173l.794.574.131.112,0,0,.057.053v0l.085.077a.359.359,0,0,0,.125.11c.017.046.087.058.08.12a4,4,0,0,0-.42.41l-.055.055-.749.749-.055.055-.32.32-.055.055-.347.347a.2.2,0,0,0-.082.082l-.32.32a.2.2,0,0,0-.082.082,1.155,1.155,0,0,0-.15.146c-.073.1-.142.106-.223.016a3.59,3.59,0,0,0-.724-.556l-.157-.093a1.267,1.267,0,0,0-.324-.177c-.043-.019-.087-.037-.129-.058a.927.927,0,0,0-.351-.136c-.083-.074-.2-.071-.293-.107a1.582,1.582,0,0,0-.4-.107,1.913,1.913,0,0,0-.427-.08c-.1-.056-.222,0-.326-.047-.169.008-.335-.045-.506-.027a1.046,1.046,0,0,1-.241,0c-.042-.006-.1-.028-.136.021a2.608,2.608,0,0,0-.4.031c-.139-.014-.265.058-.4.057l-.4.107a1.592,1.592,0,0,0-.4.131,1.625,1.625,0,0,0-.3.11,5.314,5.314,0,0,0-.993.555.43.43,0,0,0-.157.111l-.205.154a1.4,1.4,0,0,0-.254.218l-.027.027h0a.367.367,0,0,0-.114.108.745.745,0,0,0-.207.207l-.062.062-.019.019-.1.121a1.455,1.455,0,0,0-.246.31l-.155.2-.1.154a4.1,4.1,0,0,0-.469.881,1.327,1.327,0,0,0-.15.377l-.04.081a1.927,1.927,0,0,1-.178-.112c-.447-.35-.892-.7-1.34-1.054-.56-.436-1.123-.868-1.685-1.3,0-.017,0-.033.006-.05.087-.093.1-.224.178-.324l.514-.828a.172.172,0,0,0,.08-.13.762.762,0,0,0,.189-.24" transform="translate(-3813.182 -542.893)"/>
    <path id="Tracciato_1266" data-name="Tracciato 1266" d="M3803.654,602.792c.562.434,1.125.866,1.685,1.3.448.349.892.7,1.339,1.054a1.976,1.976,0,0,0,.179.112c-.088.273-.163.549-.226.829-.009.072-.018.144-.027.216a3.045,3.045,0,0,0-.056.7.371.371,0,0,0-.024.214c.009.116.018.232.027.348a1.306,1.306,0,0,0,.053.455,1.721,1.721,0,0,0,.084.479c.028.209.11.4.152.609-.03.019-.061.036-.088.058-.345.272-.688.547-1.035.817q-.7.546-1.408,1.087c-.219.168-.44.333-.661.5l-.187-.363-.317-.8-.138-.4a2.193,2.193,0,0,0-.107-.376c-.032-.088-.006-.193-.075-.27-.006-.07.017-.144-.028-.209q-.038-.176-.077-.352a2.094,2.094,0,0,0-.051-.4q-.018-.2-.036-.4c-.009-.126-.018-.251-.027-.377a.186.186,0,0,0,0-.107v-.7c0-.106,0-.212.006-.318a2.7,2.7,0,0,0,.048-.486q.031-.2.063-.4l.071-.406c.02-.076.041-.151.059-.228.046-.191.09-.383.136-.574a2.129,2.129,0,0,0,.146-.427l.309-.779a3.709,3.709,0,0,0,.184-.376l.029-.028" transform="translate(-3802.604 -597.384)"/>
    <path id="Tracciato_1267" data-name="Tracciato 1267" d="M3814.182,675.187c.22-.166.442-.331.661-.5q.7-.542,1.407-1.087c.347-.27.689-.545,1.035-.817.027-.022.059-.039.088-.058l.08.144a4.132,4.132,0,0,0,.355.8,1.946,1.946,0,0,0,.231.378l.137.213a.633.633,0,0,0,.116.16,2.927,2.927,0,0,0,.286.349.086.086,0,0,0,.049.054l.03.029h0a1.5,1.5,0,0,0,.324.325l.049.049.032.029h0a1.532,1.532,0,0,0,.324.269.378.378,0,0,0,.161.132,1.135,1.135,0,0,0,.24.164,1.48,1.48,0,0,0,.4.24c.01.024.034.022.054.026.079.088.2.1.293.161a2.524,2.524,0,0,0,.4.159.291.291,0,0,0,.135.053.821.821,0,0,0,.266.081,2.056,2.056,0,0,0,.537.133l.187.028a.755.755,0,0,0,.351.048,2.721,2.721,0,0,0,.587.027.915.915,0,0,0,.35-.022,1.565,1.565,0,0,0,.427-.032,1.912,1.912,0,0,0,.484-.075,1.7,1.7,0,0,0,.347-.081.872.872,0,0,0,.3-.079l.184-.061a1,1,0,0,0,.325-.127,3.8,3.8,0,0,0,.827-.436l.082-.044.581.456,1.395,1.092,1.113.868-.227.231c-.08.019-.118.094-.181.136l-.378.292-.8.51-.751.374c-.022,0-.044,0-.055.026h0l-.826.3-.4.127-.347.086-.129.023-.836.16a1.111,1.111,0,0,1-.266.032c-.168.04-.344,0-.511.048l-.16.005-.456.023-.507,0a2.332,2.332,0,0,0-.59-.053l-.08-.005a3.556,3.556,0,0,0-.537-.075l-.483-.085c-.02-.03-.049-.026-.079-.021l-.162-.033c-.02-.03-.051-.025-.08-.027a2.277,2.277,0,0,0-.376-.1l-.373-.112a.262.262,0,0,0-.136-.049,1.6,1.6,0,0,0-.319-.114,1.789,1.789,0,0,0-.351-.153l-.879-.435-.675-.42a.085.085,0,0,0-.023-.01l0,0-.137-.1L3817,678.6l-.212-.162a.933.933,0,0,0-.189-.16,2.775,2.775,0,0,0-.32-.272.045.045,0,0,0-.05-.05l-.671-.7a.358.358,0,0,0-.133-.16l-.244-.3a1.544,1.544,0,0,0-.189-.264l-.1-.137v0a.07.07,0,0,0-.01-.023l-.475-.753-.219-.438" transform="translate(-3813.137 -661.004)"/>
    <path id="Tracciato_1268" data-name="Tracciato 1268" d="M3917.7,640.538l-1.113-.868-1.395-1.092-.58-.456.185-.14.118-.093a1.96,1.96,0,0,0,.371-.333l.031-.042a1.39,1.39,0,0,0,.311-.336l.083-.106a1.549,1.549,0,0,0,.215-.321,3.247,3.247,0,0,0,.376-.749,1.549,1.549,0,0,0,.156-.456.785.785,0,0,0,.059-.45h-3.643l-1.632-.006q0-1.814,0-3.628c0-.172,0-.172.173-.172h8.9l.134,0a.7.7,0,0,0,.006.12,9.907,9.907,0,0,1,.163,1.457v.242c-.021.091.031.176.022.267a1.621,1.621,0,0,0-.022.4q-.019.384-.04.768-.093.6-.187,1.205c-.089.263-.15.534-.215.8a.668.668,0,0,0-.072.221l-.127.352-.168.425-.1.217-.256.525-.206.356a.144.144,0,0,0-.047.083c-.177.284-.375.555-.573.825h0l-.051.057a.1.1,0,0,0-.055.077l-.213.244-.154.163-.037.049h0l-.241.242-.054.054-.04.035-.084.055" transform="translate(-3901.434 -623.309)"/>
  </g>
</svg>
