<svg id="Raggruppa_1112" data-name="Raggruppa 1112" xmlns="http://www.w3.org/2000/svg" xmlns:xlink="http://www.w3.org/1999/xlink" width="39.458" height="35.855" viewBox="0 0 39.458 35.855">
  <defs>
    <clipPath id="clip-path">
      <rect id="Rettangolo_1460" data-name="Rettangolo 1460" width="39.459" height="35.855"/>
    </clipPath>
  </defs>
  <g id="Raggruppa_1112-2" data-name="Raggruppa 1112" clip-path="url(#clip-path)">
    <path id="Tracciato_2149" data-name="Tracciato 2149" d="M19.514,32.27a.8.8,0,0,0,.359-.09A1.022,1.022,0,0,0,20.141,32l14.7-14.7a3.3,3.3,0,0,0,.783-1.21,3.87,3.87,0,0,0,.247-1.345,3.814,3.814,0,0,0-.247-1.368,2.947,2.947,0,0,0-.783-1.142L27.223,4.616a2.971,2.971,0,0,0-1.142-.785,3.852,3.852,0,0,0-1.368-.246,3.909,3.909,0,0,0-1.345.246,3.323,3.323,0,0,0-1.21.785l-.493.493,3.317,3.361A3.866,3.866,0,0,1,25.968,9.9a4.647,4.647,0,0,1,.314,1.7,4.363,4.363,0,0,1-4.437,4.437,4.818,4.818,0,0,1-1.725-.314,4.083,4.083,0,0,1-1.458-.941L15.3,11.474,7.458,19.317a.9.9,0,0,0-.2.29.851.851,0,0,0-.068.337.941.941,0,0,0,.269.651.831.831,0,0,0,.627.29.8.8,0,0,0,.359-.09,1.022,1.022,0,0,0,.269-.179l6.1-6.1,2.51,2.51-6.051,6.1a.889.889,0,0,0-.2.292.836.836,0,0,0-.068.335.919.919,0,0,0,.9.9.8.8,0,0,0,.359-.09,1.022,1.022,0,0,0,.269-.179l6.1-6.051,2.51,2.51-6.051,6.1a.534.534,0,0,0-.2.269,1.055,1.055,0,0,0-.066.359.919.919,0,0,0,.9.9.807.807,0,0,0,.335-.068.889.889,0,0,0,.292-.2l6.1-6.051,2.51,2.51-6.1,6.1a.931.931,0,0,0-.2.29.834.834,0,0,0,.224.965.934.934,0,0,0,.649.269m-.045,3.586a4.361,4.361,0,0,1-2.935-1.1A4.264,4.264,0,0,1,15.032,32a4.407,4.407,0,0,1-3.81-3.81,4.247,4.247,0,0,1-2.531-1.278,4.55,4.55,0,0,1-1.233-2.531A4.259,4.259,0,0,1,4.679,22.9,4.4,4.4,0,0,1,3.6,19.944a4.545,4.545,0,0,1,.335-1.725A4.347,4.347,0,0,1,4.9,16.762L15.3,6.409l5.871,5.871a.531.531,0,0,0,.269.2.978.978,0,0,0,.359.068.962.962,0,0,0,.672-.246.843.843,0,0,0,.269-.651,1.055,1.055,0,0,0-.066-.359.544.544,0,0,0-.2-.269L16.063,4.616a2.964,2.964,0,0,0-1.144-.785,3.835,3.835,0,0,0-1.366-.246,3.909,3.909,0,0,0-1.345.246A3.323,3.323,0,0,0,11,4.616L4.679,10.981a3.589,3.589,0,0,0-.672.941A3.78,3.78,0,0,0,3.648,13a3.424,3.424,0,0,0,0,1.1,3.239,3.239,0,0,0,.359,1.052l-2.6,2.6a7.084,7.084,0,0,1-.762-7.194A7.19,7.19,0,0,1,2.124,8.426L8.444,2.106a7.573,7.573,0,0,1,2.4-1.569,7.152,7.152,0,0,1,7.775,1.569l.493.493.493-.493A7.573,7.573,0,0,1,22,.538a7.152,7.152,0,0,1,7.775,1.569l7.574,7.574a7.01,7.01,0,0,1,1.569,2.375,7.3,7.3,0,0,1,.538,2.734,7.18,7.18,0,0,1-2.106,5.065l-14.7,14.656a4.633,4.633,0,0,1-1.458.986,4.309,4.309,0,0,1-1.725.359" transform="translate(0)"/>
  </g>
</svg>
