<svg xmlns="http://www.w3.org/2000/svg" xmlns:xlink="http://www.w3.org/1999/xlink" width="30" height="30" viewBox="0 0 30 30">
  <defs>
    <clipPath id="clip-path">
      <rect id="Rettangolo_904" data-name="Rettangolo 904" width="30" height="30" transform="translate(0.136 0.136)"/>
    </clipPath>
  </defs>
  <g id="Raggruppa_815" data-name="Raggruppa 815" transform="translate(1629 497)">
    <g id="Raggruppa_533" data-name="Raggruppa 533" transform="translate(-1629.136 -497.136)">
      <g id="Raggruppa_532" data-name="Raggruppa 532" clip-path="url(#clip-path)">
        <path id="Tracciato_1044" data-name="Tracciato 1044" d="M3.027,30.271a2.921,2.921,0,0,1-2.139-.888A2.921,2.921,0,0,1,0,27.244V10.6A2.921,2.921,0,0,1,.888,8.456a2.921,2.921,0,0,1,2.139-.888H10.6V3.027A2.921,2.921,0,0,1,11.483.888,2.921,2.921,0,0,1,13.622,0h3.027a2.921,2.921,0,0,1,2.139.888,2.921,2.921,0,0,1,.888,2.139V7.568h7.568A3.033,3.033,0,0,1,30.271,10.6V27.244a3.033,3.033,0,0,1-3.027,3.027Zm0-3.027H27.244V10.6H19.676a3.033,3.033,0,0,1-3.027,3.027H13.622A3.033,3.033,0,0,1,10.6,10.6H3.027Zm3.027-3.027h9.081v-.681a2.13,2.13,0,0,0-.36-1.193,2.376,2.376,0,0,0-1-.851,7.79,7.79,0,0,0-1.533-.51,8,8,0,0,0-3.291,0,7.79,7.79,0,0,0-1.533.51,2.376,2.376,0,0,0-1,.851,2.13,2.13,0,0,0-.36,1.193Zm12.109-2.27h6.054v-2.27H18.163ZM10.6,19.676A2.27,2.27,0,1,0,8.986,15.8,2.27,2.27,0,0,0,10.6,19.676m7.568-2.27h6.054v-2.27H18.163ZM13.622,10.6h3.027V3.027H13.622Z" transform="translate(0 0)"/>
      </g>
    </g>
  </g>
</svg>
