<svg xmlns="http://www.w3.org/2000/svg" width="20.207" height="12.631" viewBox="0 0 20.207 12.631">
  <path id="Tracciato_1290" data-name="Tracciato 1290" d="M4345.863,1665.021c1.88,0,3.76-.013,5.64.023a6.919,6.919,0,0,1,1.821.258,2.856,2.856,0,0,1,2.2,2.4,2.916,2.916,0,0,1-1.35,3.046.663.663,0,0,0-.1.108,3.185,3.185,0,0,1,1.883,2.908,3.6,3.6,0,0,1-3.121,3.7,9.078,9.078,0,0,1-1.712.167c-1.753.023-3.507.011-5.261.013Zm2.545,5.052c.787,0,1.541.006,2.295,0a7.07,7.07,0,0,0,1.17-.062,1.33,1.33,0,0,0,1.209-1.2,1.226,1.226,0,0,0-1.229-1.16c-1.137-.075-2.283-.02-3.445-.02Zm0,5.045c1.086,0,2.134.008,3.181-.007a1.9,1.9,0,0,0,.607-.147,1.169,1.169,0,0,0,.879-1.061,1.222,1.222,0,0,0-.832-1.108,1.163,1.163,0,0,0-.44-.125c-1.126-.01-2.253-.005-3.4-.005Zm17.665-1.677h-6.683a2.092,2.092,0,0,0,2.291,2.309,5.877,5.877,0,0,0,1.354-.491,1.116,1.116,0,0,1,.334-.128c.8-.011,1.6-.006,2.489-.006a6.981,6.981,0,0,1-.412.75,4.307,4.307,0,0,1-3.48,1.751,6.808,6.808,0,0,1-1.956-.185,4.044,4.044,0,0,1-3.1-3.8,6.222,6.222,0,0,1,.526-3.448,4.41,4.41,0,0,1,4.634-2.276,4.147,4.147,0,0,1,3.939,3.859.615.615,0,0,0,.066.148Zm-2.543-1.7a1.9,1.9,0,0,0-2.3-1.837,1.8,1.8,0,0,0-1.789,1.837Zm.834-6.693h-5.836v1.636h5.836Z" transform="translate(-4345.863 -1665.02)"/>
</svg>
