<svg xmlns="http://www.w3.org/2000/svg" width="21.946" height="22.683" viewBox="0 0 21.946 22.683">
  <g id="Raggruppa_780" data-name="Raggruppa 780" transform="translate(0 0)">
    <path id="Tracciato_1161" data-name="Tracciato 1161" d="M2204.046,555.427l-.007-.026a7.566,7.566,0,0,0-5.108-4.915l-.025-.005a28.381,28.381,0,0,0-10.685,0l-.025.005a7.569,7.569,0,0,0-5.108,4.915l-.006.026a20.922,20.922,0,0,0,0,9.01l.006.026a7.63,7.63,0,0,0,4.827,4.843v2.389a.96.96,0,0,0,1.653.665l2.421-2.516c.525.029,1.05.046,1.575.046a28.5,28.5,0,0,0,5.343-.507l.025-.005a7.566,7.566,0,0,0,5.108-4.915l.007-.026a20.914,20.914,0,0,0,0-9.01M2202.13,564a5.722,5.722,0,0,1-3.606,3.453,26.457,26.457,0,0,1-5.683.459.133.133,0,0,0-.1.041l-1.768,1.814-1.88,1.929a.22.22,0,0,1-.379-.152V567.59a.137.137,0,0,0-.111-.133h0A5.723,5.723,0,0,1,2185,564a18.97,18.97,0,0,1,0-8.142,5.723,5.723,0,0,1,3.605-3.453,26.428,26.428,0,0,1,9.922,0,5.72,5.72,0,0,1,3.606,3.453,18.947,18.947,0,0,1,0,8.142" transform="translate(-2182.591 -549.974)"/>
    <path id="Tracciato_1162" data-name="Tracciato 1162" d="M2242.927,609.368c-.222-.067-.433-.112-.628-.194a14.273,14.273,0,0,1-5.379-3.595,13.98,13.98,0,0,1-2.058-3.149c-.264-.537-.486-1.094-.713-1.648a1.431,1.431,0,0,1,.419-1.408,3.309,3.309,0,0,1,1.108-.832.711.711,0,0,1,.889.211,11.45,11.45,0,0,1,1.376,1.926.917.917,0,0,1-.257,1.242c-.1.071-.2.154-.3.234a.98.98,0,0,0-.223.236.644.644,0,0,0-.043.567,5.128,5.128,0,0,0,2.881,3.19,1.467,1.467,0,0,0,.738.179c.451-.053.6-.548.914-.806a.861.861,0,0,1,1.037-.045c.333.211.656.437.977.666a11.1,11.1,0,0,1,.919.7.729.729,0,0,1,.218.9,3.053,3.053,0,0,1-1.311,1.445,3.168,3.168,0,0,1-.567.18c-.222-.067.192-.059,0,0" transform="translate(-2228.822 -593.512)"/>
    <path id="Tracciato_1163" data-name="Tracciato 1163" d="M2285.856,592.364a5.4,5.4,0,0,1,5.3,4.462c.08.447.108.9.144,1.359a.319.319,0,0,1-.3.375c-.213,0-.309-.175-.323-.366-.027-.378-.046-.758-.1-1.132a4.744,4.744,0,0,0-3.821-3.966c-.3-.053-.6-.067-.9-.1-.189-.02-.438-.031-.48-.267a.324.324,0,0,1,.32-.365c.051,0,.1,0,.154,0,2.655.075-.052,0,0,0" transform="translate(-2274.877 -588.033)"/>
    <path id="Tracciato_1164" data-name="Tracciato 1164" d="M2294.177,610.071a1.227,1.227,0,0,1-.026.185.3.3,0,0,1-.568.031.806.806,0,0,1-.032-.257,3.215,3.215,0,0,0-.406-1.614,3,3,0,0,0-1.26-1.182,3.624,3.624,0,0,0-1-.308c-.151-.025-.3-.04-.456-.062a.289.289,0,0,1-.274-.325.286.286,0,0,1,.318-.282,4.171,4.171,0,0,1,1.74.453,3.52,3.52,0,0,1,1.915,2.734c.008.056.021.111.026.167.01.138.017.276.027.458,0,.033-.01-.182,0,0" transform="translate(-2279.162 -600.508)"/>
    <path id="Tracciato_1165" data-name="Tracciato 1165" d="M2296.072,622.793a.328.328,0,0,1-.364-.323,3.323,3.323,0,0,0-.062-.424,1.2,1.2,0,0,0-.441-.691,1.144,1.144,0,0,0-.358-.173c-.163-.047-.333-.034-.5-.074a.3.3,0,0,1-.247-.352.32.32,0,0,1,.337-.257,1.826,1.826,0,0,1,1.87,1.819.835.835,0,0,1,0,.258.264.264,0,0,1-.237.217c-.222,0,.1-.007,0,0" transform="translate(-2282.709 -613.294)"/>
  </g>
</svg>
