<svg xmlns="http://www.w3.org/2000/svg" width="22.368" height="21.313" viewBox="0 0 22.368 21.313">
  <path id="Tracciato_1261" data-name="Tracciato 1261" d="M2737.73,555.477c0-5-5.017-9.076-11.184-9.076s-11.184,4.072-11.184,9.076c0,4.487,3.979,8.244,9.354,8.954.364.079.86.24.985.552a2.29,2.29,0,0,1,.036,1.011s-.131.789-.16.957c-.049.283-.225,1.106.969.6a36.108,36.108,0,0,0,8.788-6.493h0a8.073,8.073,0,0,0,2.4-5.584m-15.13,2.672a.218.218,0,0,1-.217.218h-3.134a.216.216,0,0,1-.15-.061l0,0,0,0a.216.216,0,0,1-.061-.15h0v-4.872a.218.218,0,0,1,.218-.218h.785a.218.218,0,0,1,.218.218v3.87h2.131a.218.218,0,0,1,.217.218Zm1.892,0a.218.218,0,0,1-.218.217h-.784a.218.218,0,0,1-.218-.217v-4.873a.218.218,0,0,1,.218-.218h.784a.218.218,0,0,1,.218.218Zm5.4,0a.217.217,0,0,1-.218.217h-.784a.212.212,0,0,1-.056-.008h0l-.014,0-.007,0-.01,0-.01-.005-.006,0-.013-.008,0,0a.214.214,0,0,1-.055-.054l-2.236-3.02v2.894a.218.218,0,0,1-.218.217h-.784a.218.218,0,0,1-.218-.217v-4.873a.218.218,0,0,1,.218-.218h.824l.013,0,.008,0,.013,0,.007,0,.013.005.007,0,.012.007.007,0,.011.008.006,0,.011.01,0,0,.013.013h0a.182.182,0,0,1,.017.022l2.233,3.016v-2.9a.218.218,0,0,1,.218-.218h.784a.217.217,0,0,1,.218.218Zm4.332-4.088a.217.217,0,0,1-.218.218h-2.131v.824h2.131a.217.217,0,0,1,.218.218v.784a.217.217,0,0,1-.218.218h-2.131v.824h2.131a.217.217,0,0,1,.218.218v.785a.217.217,0,0,1-.218.218h-3.134a.215.215,0,0,1-.15-.061l0,0,0,0a.216.216,0,0,1-.061-.151h0v-4.872h0a.219.219,0,0,1,.06-.15l0,0,0,0a.217.217,0,0,1,.151-.062h3.134a.218.218,0,0,1,.218.218Z" transform="translate(-2715.363 -546.401)"/>
</svg>
