<svg xmlns="http://www.w3.org/2000/svg" width="17" height="21.954" viewBox="0 0 17 21.954">
  <g id="Raggruppa_826" data-name="Raggruppa 826" transform="translate(1653.239 48.633)">
    <path id="Tracciato_1253" data-name="Tracciato 1253" d="M592.564,564.775c-.019.063-.036.116-.05.169-.806,3.16-.9,3.861-1.725,5.328a16.412,16.412,0,0,1-1.333,1.991c-.056.072-.108.164-.219.141s-.131-.135-.144-.232a17,17,0,0,1-.174-2.892c.042-1.263.2-1.7,1.826-8.541a.475.475,0,0,0-.038-.285,4.817,4.817,0,0,1-.126-3.2c.737-2.334,3.383-2.513,3.846-.587.285,1.191-.469,2.75-1.048,5.055-.48,1.9,1.759,3.253,3.672,1.865,1.764-1.28,2.449-4.347,2.319-6.521-.256-4.335-5.01-5.272-8.026-3.876-3.457,1.6-4.243,5.884-2.682,7.843.2.249.351.4.285.654-.1.392-.189.787-.3,1.177a.417.417,0,0,1-.617.277,3.539,3.539,0,0,1-1.444-1.082,6.841,6.841,0,0,1,.048-7.637,9.175,9.175,0,0,1,8.852-3.9,7.5,7.5,0,0,1,6.895,6.192,10.308,10.308,0,0,1-1.893,7.244c-2.246,2.786-5.887,2.97-7.567,1.261-.13-.131-.233-.285-.36-.441" transform="translate(-2238.694 -599.087)" fill-rule="evenodd"/>
  </g>
</svg>
