<svg xmlns="http://www.w3.org/2000/svg" xmlns:xlink="http://www.w3.org/1999/xlink" width="24" height="24" viewBox="0 0 24 24">
  <defs>
    <clipPath id="clip-path">
      <rect id="Rettangolo_898" data-name="Rettangolo 898" width="24" height="24" transform="translate(0 0)"/>
    </clipPath>
  </defs>
  <g id="Raggruppa_609" data-name="Raggruppa 609" transform="translate(0 0)">
    <g id="Raggruppa_515" data-name="Raggruppa 515" transform="translate(0 0)" clip-path="url(#clip-path)">
      <path id="Tracciato_1031" data-name="Tracciato 1031" d="M12,24a11.591,11.591,0,0,1-4.65-.946,12.079,12.079,0,0,1-6.406-6.4A11.611,11.611,0,0,1,0,12,11.575,11.575,0,0,1,.944,7.336,12.118,12.118,0,0,1,7.35.946,11.591,11.591,0,0,1,12,0a11.556,11.556,0,0,1,4.664.946,12.161,12.161,0,0,1,6.39,6.39A11.576,11.576,0,0,1,24,12a11.612,11.612,0,0,1-.946,4.65,12.121,12.121,0,0,1-6.39,6.4A11.556,11.556,0,0,1,12,24m0-2.46a15.3,15.3,0,0,0,1.35-2.25,14.184,14.184,0,0,0,.93-2.49H9.72a14.184,14.184,0,0,0,.93,2.49A15.3,15.3,0,0,0,12,21.54m-3.12-.48A16.615,16.615,0,0,1,7.934,19a17.59,17.59,0,0,1-.674-2.2H3.72a9.961,9.961,0,0,0,2.174,2.61A8.634,8.634,0,0,0,8.88,21.06m6.24,0A8.629,8.629,0,0,0,18.1,19.41,9.965,9.965,0,0,0,20.28,16.8H16.74a17.594,17.594,0,0,1-.676,2.2,16.435,16.435,0,0,1-.944,2.056M2.7,14.4H6.78c-.06-.4-.106-.8-.134-1.186S6.6,12.42,6.6,12s.014-.824.046-1.214S6.72,10,6.78,9.6H2.7a10.44,10.44,0,0,0-.226,1.186,9.948,9.948,0,0,0,0,2.429A10.44,10.44,0,0,0,2.7,14.4m6.48,0h5.64c.06-.4.1-.8.134-1.186S15,12.42,15,12s-.016-.824-.046-1.214S14.88,10,14.82,9.6H9.18c-.06.4-.106.8-.136,1.186S9,11.58,9,12s.014.824.044,1.214S9.12,14,9.18,14.4m8.04,0H21.3a10.175,10.175,0,0,0,.224-1.186,9.792,9.792,0,0,0,0-2.429A10.175,10.175,0,0,0,21.3,9.6H17.22c.06.4.1.8.134,1.186S17.4,11.58,17.4,12s-.016.824-.046,1.214S17.28,14,17.22,14.4m-.48-7.2h3.54A9.965,9.965,0,0,0,18.1,4.59,8.629,8.629,0,0,0,15.12,2.94,16.435,16.435,0,0,1,16.064,5a17.594,17.594,0,0,1,.676,2.2m-7.02,0h4.56a14.184,14.184,0,0,0-.93-2.49A15.3,15.3,0,0,0,12,2.46a15.3,15.3,0,0,0-1.35,2.25A14.184,14.184,0,0,0,9.72,7.2m-6,0H7.26A17.59,17.59,0,0,1,7.934,5,16.615,16.615,0,0,1,8.88,2.94,8.634,8.634,0,0,0,5.894,4.59,9.961,9.961,0,0,0,3.72,7.2" transform="translate(0 0)"/>
    </g>
  </g>
</svg>
