<svg xmlns="http://www.w3.org/2000/svg" width="26.428" height="26.428" viewBox="0 0 26.428 26.428">
  <g id="Raggruppa_816" data-name="Raggruppa 816" transform="translate(1558.214 493.214)">
    <path id="Tracciato_1043" data-name="Tracciato 1043" d="M23.491,26.428h2.936V23.491H23.491Zm-8.809-2.936h2.936V20.555H14.682Zm8.809-5.873v2.936H20.555v2.936H17.618v2.936h2.936V23.491h2.936V20.555h2.936V17.618Zm-20.555,0H8.811v5.874H2.936ZM0,26.428H11.746V14.682H0Zm14.682-8.809h2.936V14.682H14.682Zm5.873-2.936v2.936H17.618v2.936h2.936V17.618h2.936V14.682ZM2.936,2.936H8.811V8.811H2.936ZM0,11.746H11.746V0H0ZM17.618,2.936h5.874V8.811H17.618Zm-2.936,8.809H26.428V0H14.682Z" transform="translate(-1558.214 -493.214)"/>
  </g>
</svg>
