<svg xmlns="http://www.w3.org/2000/svg" width="22.957" height="20.456" viewBox="0 0 22.957 20.456">
  <g id="Raggruppa_825" data-name="Raggruppa 825" transform="translate(1776.396 49.415)">
    <path id="Tracciato_1249" data-name="Tracciato 1249" d="M5426.559,11.408A2.51,2.51,0,0,0,5422.3,9.6a12.3,12.3,0,0,0-6.718-2.131l1.145-5.384,3.739.795a1.8,1.8,0,1,0,.184-.878l-4.175-.887a.448.448,0,0,0-.532.346l-1.278,6.007a12.336,12.336,0,0,0-6.816,2.128,2.511,2.511,0,1,0-2.766,4.1,4.97,4.97,0,0,0-.06.76c0,3.865,4.5,7,10.048,7s10.048-3.133,10.048-7a4.906,4.906,0,0,0-.059-.755,2.511,2.511,0,0,0,1.495-2.3M5409.335,13.2a1.794,1.794,0,1,1,1.8,1.794,1.8,1.8,0,0,1-1.8-1.794m10.006,4.741c-1.225,1.223-3.572,1.318-4.262,1.318s-3.037-.1-4.26-1.318a.465.465,0,0,1,.658-.658,6.73,6.73,0,0,0,7.207,0,.465.465,0,1,1,.657.658M5419.025,15a1.795,1.795,0,1,1,1.794-1.794A1.8,1.8,0,0,1,5419.025,15" transform="translate(-7179.999 -50.416)"/>
  </g>
</svg>
