<svg xmlns="http://www.w3.org/2000/svg" xmlns:xlink="http://www.w3.org/1999/xlink" width="20.588" height="20.779" viewBox="0 0 20.588 20.779">
  <defs>
    <clipPath id="clip-path">
      <rect id="Rettangolo_1247" data-name="Rettangolo 1247" width="11.705" height="11.744"/>
    </clipPath>
    <clipPath id="clip-path-2">
      <rect id="Rettangolo_1248" data-name="Rettangolo 1248" width="11.482" height="11.494"/>
    </clipPath>
    <clipPath id="clip-path-3">
      <rect id="Rettangolo_1249" data-name="Rettangolo 1249" width="11.753" height="11.805"/>
    </clipPath>
    <clipPath id="clip-path-4">
      <rect id="Rettangolo_1250" data-name="Rettangolo 1250" width="12.028" height="12.112"/>
    </clipPath>
    <clipPath id="clip-path-5">
      <rect id="Rettangolo_1251" data-name="Rettangolo 1251" width="3.27" height="3.064"/>
    </clipPath>
    <clipPath id="clip-path-6">
      <path id="Tracciato_1149" data-name="Tracciato 1149" d="M5636.02,691.681Z" transform="translate(-5636.02 -691.68)"/>
    </clipPath>
    <clipPath id="clip-path-7">
      <rect id="Rettangolo_1252" data-name="Rettangolo 1252" width="11.988" height="12.086"/>
    </clipPath>
    <clipPath id="clip-path-8">
      <rect id="Rettangolo_1253" data-name="Rettangolo 1253" width="11.532" height="11.567"/>
    </clipPath>
  </defs>
  <g id="Raggruppa_797" data-name="Raggruppa 797" transform="translate(0 0)">
    <path id="Tracciato_1140" data-name="Tracciato 1140" d="M5429.736,552.815l-.242-.1a9.191,9.191,0,0,1-1.633-.849,3.018,3.018,0,0,1-.947-1,2.758,2.758,0,0,1-.324-1.381,2.482,2.482,0,0,1,.585-1.671,3.517,3.517,0,0,1,1.523-1.018,5.888,5.888,0,0,1,2-.336,7.745,7.745,0,0,1,1.327.1l.13.022h0l.127.025a6.056,6.056,0,1,0-2.544,6.205h0" transform="translate(-5420.268 -541.762)"/>
    <g id="Raggruppa_727" data-name="Raggruppa 727" transform="translate(0.306 0.385)" opacity="0.1" style="isolation: isolate">
      <g id="Raggruppa_726" data-name="Raggruppa 726">
        <g id="Raggruppa_725" data-name="Raggruppa 725" clip-path="url(#clip-path)">
          <path id="Tracciato_1141" data-name="Tracciato 1141" d="M5432.67,556.482l-.272-.115a9.19,9.19,0,0,1-1.633-.849,3.024,3.024,0,0,1-.947-1,2.767,2.767,0,0,1-.324-1.38,2.484,2.484,0,0,1,.585-1.671,3.517,3.517,0,0,1,1.524-1.018,5.882,5.882,0,0,1,1.995-.336,7.747,7.747,0,0,1,1.327.1c.087.013.173.029.259.048a6.065,6.065,0,0,0-3.811-4.462,10.316,10.316,0,0,0-7.9,7.562,6.067,6.067,0,0,0,9.192,3.119" transform="translate(-5423.478 -545.801)" fill-rule="evenodd"/>
        </g>
      </g>
    </g>
    <g id="Raggruppa_730" data-name="Raggruppa 730" transform="translate(0.529 0.631)" opacity="0.1" style="isolation: isolate">
      <g id="Raggruppa_729" data-name="Raggruppa 729">
        <g id="Raggruppa_728" data-name="Raggruppa 728" clip-path="url(#clip-path-2)">
          <path id="Tracciato_1142" data-name="Tracciato 1142" d="M5434.783,558.813l-.27-.114a9.2,9.2,0,0,1-1.633-.849,3.022,3.022,0,0,1-.947-1,2.752,2.752,0,0,1-.324-1.381,2.477,2.477,0,0,1,.584-1.671,3.514,3.514,0,0,1,1.524-1.018,5.878,5.878,0,0,1,1.995-.336,7.767,7.767,0,0,1,1.327.1c.086.013.173.029.258.048a6.072,6.072,0,0,0-3.244-4.217,9.964,9.964,0,0,0-8.238,7.889,6.067,6.067,0,0,0,8.966,2.544" transform="translate(-5425.817 -548.379)" fill-rule="evenodd"/>
        </g>
      </g>
    </g>
    <path id="Tracciato_1143" data-name="Tracciato 1143" d="M5510.381,661.443a3.408,3.408,0,0,0,.765.079,2.041,2.041,0,0,0,1.286-.343,1.131,1.131,0,0,0,.434-.939,1,1,0,0,0-.271-.686,2.889,2.889,0,0,0-.8-.582q-.407-.214-1.068-.5a6.007,6.007,0,0,0-1.126,2.7c.067.031.129.059.184.083a3.464,3.464,0,0,0,.6.188" transform="translate(-5501.083 -647.343)"/>
    <path id="Tracciato_1144" data-name="Tracciato 1144" d="M5515.82,632.809a6.055,6.055,0,0,0-3.214.917,9.282,9.282,0,0,1,1.344.719,3.281,3.281,0,0,1,1,1.029,2.721,2.721,0,0,1,.362,1.43,2.876,2.876,0,0,1-.5,1.723,2.983,2.983,0,0,1-1.4,1.041,5.913,5.913,0,0,1-2.108.344,6.642,6.642,0,0,1-1.462-.111,6.067,6.067,0,1,0,5.979-7.092" transform="translate(-5501.3 -624.128)"/>
    <g id="Raggruppa_733" data-name="Raggruppa 733" transform="translate(8.544 8.647)" opacity="0.1" style="isolation: isolate">
      <g id="Raggruppa_732" data-name="Raggruppa 732">
        <g id="Raggruppa_731" data-name="Raggruppa 731" clip-path="url(#clip-path-3)">
          <path id="Tracciato_1145" data-name="Tracciato 1145" d="M5514,632.735a6.073,6.073,0,0,0-1.4.651,9.349,9.349,0,0,1,1.375.732,3.282,3.282,0,0,1,1,1.029,2.716,2.716,0,0,1,.362,1.43,2.879,2.879,0,0,1-.5,1.723,2.983,2.983,0,0,1-1.4,1.041,5.907,5.907,0,0,1-2.108.344,6.64,6.64,0,0,1-1.459-.11,6.076,6.076,0,0,0,4,4.678,10.315,10.315,0,0,0,7.752-7.577,6.066,6.066,0,0,0-7.621-3.94" transform="translate(-5509.866 -632.448)" fill-rule="evenodd"/>
        </g>
      </g>
    </g>
    <g id="Raggruppa_736" data-name="Raggruppa 736" transform="translate(8.545 8.642)" opacity="0.05" style="isolation: isolate">
      <g id="Raggruppa_735" data-name="Raggruppa 735">
        <g id="Raggruppa_734" data-name="Raggruppa 734" clip-path="url(#clip-path-4)">
          <path id="Tracciato_1146" data-name="Tracciato 1146" d="M5515.436,632.414a6.04,6.04,0,0,0-2.833.927,9.361,9.361,0,0,1,1.379.734,3.273,3.273,0,0,1,1,1.029,2.713,2.713,0,0,1,.363,1.43,2.876,2.876,0,0,1-.5,1.723,2.979,2.979,0,0,1-1.4,1.041,5.91,5.91,0,0,1-2.108.344,6.637,6.637,0,0,1-1.458-.11,6.068,6.068,0,0,0,5.425,4.98,11.022,11.022,0,0,0,6.6-6.459,6.067,6.067,0,0,0-6.469-5.639" transform="translate(-5509.877 -632.4)"/>
        </g>
      </g>
    </g>
    <g id="Raggruppa_739" data-name="Raggruppa 739" transform="translate(8.514 11.12)" opacity="0.05" style="isolation: isolate">
      <g id="Raggruppa_738" data-name="Raggruppa 738">
        <g id="Raggruppa_737" data-name="Raggruppa 737" clip-path="url(#clip-path-5)">
          <path id="Tracciato_1147" data-name="Tracciato 1147" d="M5510.347,661.372a3.406,3.406,0,0,0,.765.079,2.043,2.043,0,0,0,1.287-.343,1.133,1.133,0,0,0,.433-.939,1,1,0,0,0-.271-.686,2.891,2.891,0,0,0-.8-.582q-.412-.217-1.085-.508a6.047,6.047,0,0,0-1.112,2.706c.069.032.132.061.188.085a3.467,3.467,0,0,0,.6.188" transform="translate(-5509.563 -658.393)"/>
        </g>
      </g>
    </g>
    <g id="Raggruppa_742" data-name="Raggruppa 742" transform="translate(20.573 14.295)" opacity="0.05" style="isolation: isolate">
      <g id="Raggruppa_741" data-name="Raggruppa 741" transform="translate(0)">
        <g id="Raggruppa_740" data-name="Raggruppa 740" clip-path="url(#clip-path-6)">
          <path id="Tracciato_1148" data-name="Tracciato 1148" d="M5636.022,691.684h0" transform="translate(-5636.02 -691.684)"/>
        </g>
      </g>
    </g>
    <g id="Raggruppa_745" data-name="Raggruppa 745" transform="translate(0.022 0.046)" opacity="0.05" style="isolation: isolate">
      <g id="Raggruppa_744" data-name="Raggruppa 744">
        <g id="Raggruppa_743" data-name="Raggruppa 743" clip-path="url(#clip-path-7)">
          <path id="Tracciato_1150" data-name="Tracciato 1150" d="M5429.979,553.27l-.275-.117a9.2,9.2,0,0,1-1.633-.848,3.018,3.018,0,0,1-.946-1,2.763,2.763,0,0,1-.325-1.38,2.482,2.482,0,0,1,.585-1.671,3.52,3.52,0,0,1,1.524-1.018,5.883,5.883,0,0,1,1.995-.336,7.753,7.753,0,0,1,1.327.1q.13.02.258.047a6.067,6.067,0,0,0-5.188-4.8,11.023,11.023,0,0,0-6.8,6.518,6.067,6.067,0,0,0,9.479,4.5" transform="translate(-5420.5 -542.249)" fill-rule="evenodd"/>
        </g>
      </g>
    </g>
    <path id="Tracciato_1151" data-name="Tracciato 1151" d="M5512.736,609.014a3.776,3.776,0,0,0-1-.125,2.286,2.286,0,0,0-1.256.321,1.045,1.045,0,0,0-.5.939.943.943,0,0,0,.26.66,2.372,2.372,0,0,0,.7.5q.44.219,1.316.58a1.41,1.41,0,0,1,.188.076l.031.013a6,6,0,0,0,1.035-2.7,7.934,7.934,0,0,0-.771-.267" transform="translate(-5501.42 -602.487)"/>
    <g id="Raggruppa_748" data-name="Raggruppa 748" transform="translate(8.542 8.649)" opacity="0.1" style="isolation: isolate">
      <g id="Raggruppa_747" data-name="Raggruppa 747">
        <g id="Raggruppa_746" data-name="Raggruppa 746" clip-path="url(#clip-path-8)">
          <path id="Tracciato_1152" data-name="Tracciato 1152" d="M5513.4,632.978a6.135,6.135,0,0,0-.812.429,9.323,9.323,0,0,1,1.373.731,3.287,3.287,0,0,1,1,1.029,2.716,2.716,0,0,1,.362,1.43,2.879,2.879,0,0,1-.5,1.723,2.987,2.987,0,0,1-1.4,1.041,5.917,5.917,0,0,1-2.108.344,6.637,6.637,0,0,1-1.46-.111,6.071,6.071,0,0,0,3.418,4.443,9.964,9.964,0,0,0,8.113-7.927,6.065,6.065,0,0,0-7.985-3.132" transform="translate(-5509.854 -632.47)" fill-rule="evenodd"/>
        </g>
      </g>
    </g>
    <path id="Tracciato_1153" data-name="Tracciato 1153" d="M5437.074,550.755a9.577,9.577,0,1,0,9.61,9.577,9.593,9.593,0,0,0-9.61-9.577m3.219,13.642a2.983,2.983,0,0,1-1.4,1.041,5.913,5.913,0,0,1-2.108.344,6.647,6.647,0,0,1-2.874-.544,1.569,1.569,0,0,1-.591-.46,1.037,1.037,0,0,1-.192-.626.818.818,0,0,1,.252-.637.934.934,0,0,1,.652-.23,1.664,1.664,0,0,1,.761.2c.292.146.523.255.691.328a3.475,3.475,0,0,0,.6.188,3.406,3.406,0,0,0,.765.079,2.043,2.043,0,0,0,1.286-.343,1.131,1.131,0,0,0,.434-.939,1,1,0,0,0-.272-.686,2.885,2.885,0,0,0-.8-.582q-.529-.278-1.486-.679a9.236,9.236,0,0,1-1.633-.849,3.022,3.022,0,0,1-.946-1,2.757,2.757,0,0,1-.324-1.38,2.482,2.482,0,0,1,.584-1.671,3.523,3.523,0,0,1,1.524-1.018,5.885,5.885,0,0,1,2-.336,7.738,7.738,0,0,1,1.327.1,4.788,4.788,0,0,1,.92.237,1.79,1.79,0,0,1,.721.46.936.936,0,0,1,.222.619.9.9,0,0,1-.234.645.776.776,0,0,1-.587.245,1.063,1.063,0,0,1-.437-.1,7.931,7.931,0,0,0-1.041-.381,3.786,3.786,0,0,0-1-.125,2.292,2.292,0,0,0-1.257.321,1.045,1.045,0,0,0-.5.939.943.943,0,0,0,.26.66,2.382,2.382,0,0,0,.7.5q.441.219,1.316.58a1.386,1.386,0,0,1,.188.076,9.341,9.341,0,0,1,1.628.837,3.281,3.281,0,0,1,1,1.029,2.716,2.716,0,0,1,.362,1.43,2.876,2.876,0,0,1-.5,1.723" transform="translate(-5426.778 -549.898)"/>
  </g>
</svg>
