<svg xmlns="http://www.w3.org/2000/svg" width="21.5" height="21.499" viewBox="0 0 21.5 21.499">
  <path id="Tracciato_1263" data-name="Tracciato 1263" d="M3265.469,536.879a10.374,10.374,0,0,0-10.75,10.427,10.2,10.2,0,0,0,3.376,7.713.857.857,0,0,1,.289.613l.059,1.912a.86.86,0,0,0,1.207.76l2.134-.942a.86.86,0,0,1,.574-.042,11.722,11.722,0,0,0,3.112.413,10.432,10.432,0,1,0,0-20.854m6.455,8.023-3.157,5.01a1.613,1.613,0,0,1-2.332.43l-2.511-1.884a.645.645,0,0,0-.777,0l-3.392,2.574a.511.511,0,0,1-.741-.679l3.158-5.01a1.612,1.612,0,0,1,2.332-.43l2.511,1.884a.645.645,0,0,0,.777,0l3.392-2.574a.511.511,0,0,1,.741.679" transform="translate(-3254.719 -536.879)" fill-rule="evenodd"/>
</svg>
