<svg xmlns="http://www.w3.org/2000/svg" width="19.425" height="13.612" viewBox="0 0 19.425 13.612">
  <path id="Tracciato_1275" data-name="Tracciato 1275" d="M31.642,1132.573a2.26,2.26,0,0,1-1.492-1.448c-.645-1.776-.836-9.2.406-10.665a2.409,2.409,0,0,1,1.623-.862c3.349-.36,13.7-.309,14.9.121a2.334,2.334,0,0,1,1.465,1.409c.706,1.835.731,8.512-.094,10.28a2.267,2.267,0,0,1-1.05,1.06c-1.249.655-14.111.647-15.754.105m5.321-3.481L43,1125.964l-6.033-3.148Z" transform="translate(-29.643 -1119.358)" fill-rule="evenodd"/>
</svg>
