<svg xmlns="http://www.w3.org/2000/svg" width="17.078" height="17.163" viewBox="0 0 17.078 17.163">
  <path id="Tracciato_1288" data-name="Tracciato 1288" d="M5451.656,1102.491h-.847a1.2,1.2,0,0,1-1.2-1.2v-.084a5.036,5.036,0,0,0-5.037-5.036h-3.761a5.036,5.036,0,0,0-5.036,5.036v7.091a5.036,5.036,0,0,0,5.036,5.036h7.006a5.036,5.036,0,0,0,5.036-5.036v-4.609a1.2,1.2,0,0,0-1.2-1.2m-10.627-1.964h4.013a.982.982,0,1,1,0,1.964h-4.013a.982.982,0,1,1,0-1.964m6.66,8.453h-6.66a.982.982,0,1,1,0-1.964h6.66a.982.982,0,1,1,0,1.964" transform="translate(-5435.777 -1096.172)"/>
</svg>
