<svg xmlns="http://www.w3.org/2000/svg" width="24.877" height="20.665" viewBox="0 0 24.877 20.665">
  <g id="Raggruppa_827" data-name="Raggruppa 827" transform="translate(1601.38 48.804)">
    <path id="Tracciato_1255" data-name="Tracciato 1255" d="M1196.441,622.366a10.757,10.757,0,0,0-.258-1.171,6.366,6.366,0,0,0-2.927-3.5,8.468,8.468,0,0,0-5.837-1.058,7.752,7.752,0,0,0-4.706,2.533,5.569,5.569,0,0,0-.558,6.8,7.608,7.608,0,0,0,5.956,3.395,9.674,9.674,0,0,0,3.458-.357.515.515,0,0,1,.331.02c.561.279,1.114.575,1.67.866.209.109.417.221.662.352-.022-.078-.031-.114-.042-.149-.2-.622-.395-1.245-.6-1.864-.041-.123-.037-.2.079-.273a5.433,5.433,0,0,0,.447-.343,6.2,6.2,0,0,0,2.157-3.175c.093-.334.138-.681.205-1.022v-.933c-.012-.042-.026-.084-.036-.127m-9.877-.468a1.02,1.02,0,1,1,1.02-1.02,1.02,1.02,0,0,1-1.02,1.02m4.971,0a1.02,1.02,0,1,1,1.02-1.02,1.02,1.02,0,0,1-1.02,1.02" transform="translate(-2772.98 -658.39)"/>
    <path id="Tracciato_1256" data-name="Tracciato 1256" d="M1093.678,559.018a6.616,6.616,0,0,1,2.755-3.979,8.951,8.951,0,0,1,5.567-1.612c.128,0,.256,0,.386,0a.255.255,0,0,0,0-.065c-.043-.169-.08-.34-.133-.506a7.893,7.893,0,0,0-4.164-4.765,10.117,10.117,0,0,0-7.7-.637,8.562,8.562,0,0,0-4.963,3.64,6.48,6.48,0,0,0-.991,4.583,7.008,7.008,0,0,0,2.157,4.056c.413.4.871.75,1.32,1.132l-.874,2.612c.14-.072.22-.112.3-.154.845-.45,1.692-.9,2.533-1.354a.51.51,0,0,1,.435-.045,11.13,11.13,0,0,0,3.078.479c.152,0,.3,0,.48,0-.033-.118-.056-.2-.079-.276a6.1,6.1,0,0,1-.11-3.11m2.875-8.307a1.28,1.28,0,1,1-1.28,1.28,1.28,1.28,0,0,1,1.28-1.28m-6.233,2.56a1.28,1.28,0,1,1,1.28-1.28,1.28,1.28,0,0,1-1.28,1.28" transform="translate(-2685.739 -595.782)"/>
  </g>
</svg>
