<svg xmlns="http://www.w3.org/2000/svg" xmlns:xlink="http://www.w3.org/1999/xlink" width="31" height="27" viewBox="0 0 31 27">
  <defs>
    <clipPath id="clip-path">
      <rect id="Rettangolo_1321" data-name="Rettangolo 1321" width="31" height="27" transform="translate(0 -0.15)"/>
    </clipPath>
  </defs>
  <g id="Raggruppa_939" data-name="Raggruppa 939" transform="translate(0.057 0.549)">
    <g id="Raggruppa_938" data-name="Raggruppa 938" transform="translate(-0.057 -0.399)" clip-path="url(#clip-path)">
      <path id="Tracciato_1319" data-name="Tracciato 1319" d="M4.624,26.2a4.461,4.461,0,0,1-3.275-1.349A4.461,4.461,0,0,1,0,21.577V10.789A4.461,4.461,0,0,1,1.349,7.514,4.461,4.461,0,0,1,4.624,6.165a4.294,4.294,0,0,1,1.908.424A5.223,5.223,0,0,1,8.053,7.706H9.247V0H24.66V7.706H26.2a4.6,4.6,0,0,1,4.624,4.624V24.66H8.053a5.223,5.223,0,0,1-1.521,1.117,4.294,4.294,0,0,1-1.908.424m0-3.082a1.516,1.516,0,0,0,1.541-1.541V10.789A1.516,1.516,0,0,0,4.624,9.247a1.516,1.516,0,0,0-1.541,1.541V21.577a1.516,1.516,0,0,0,1.541,1.541M12.33,7.706h9.247V3.082H12.33ZM9.247,21.577H27.742V12.33A1.516,1.516,0,0,0,26.2,10.789H9.247Zm10.789-6.165a1.516,1.516,0,1,0-1.1-.444,1.487,1.487,0,0,0,1.1.444m4.624,0a1.516,1.516,0,1,0-1.1-.444,1.487,1.487,0,0,0,1.1.444m-4.624,4.624a1.516,1.516,0,1,0-1.1-.444,1.487,1.487,0,0,0,1.1.444m4.624,0a1.516,1.516,0,1,0-1.1-.444,1.487,1.487,0,0,0,1.1.444m-13.871,0h6.165V12.33H10.789ZM9.247,21.577v0Z" transform="translate(0.047 0.324)"/>
    </g>
  </g>
</svg>
