<svg xmlns="http://www.w3.org/2000/svg" width="22.613" height="22.611" viewBox="0 0 22.613 22.611">
  <path id="Tracciato_1284" data-name="Tracciato 1284" d="M3805.833,1076.7a11.306,11.306,0,1,0,11.3,11.307,11.322,11.322,0,0,0-11.3-11.307m7.3,5.519a9.277,9.277,0,0,1,2,5.229,17.017,17.017,0,0,0-6.359-.116q-.35-.814-.71-1.552a13.626,13.626,0,0,0,5.065-3.56m-1.4-1.423a11.538,11.538,0,0,1-4.583,3.219c-.2-.352-.39-.683-.58-1a31.675,31.675,0,0,0-2.916-4.072,9.311,9.311,0,0,1,8.079,1.85m-10.081-1.114a29.4,29.4,0,0,1,3.583,5,30.019,30.019,0,0,1-8.427,1.021,9.355,9.355,0,0,1,4.844-6.018m-5.132,8.325c0-.109,0-.216,0-.322.25.007.535.012.853.012a33.771,33.771,0,0,0,5.487-.445,25.25,25.25,0,0,0,3.327-.781c.219.434.428.886.635,1.357a14.529,14.529,0,0,0-4.544,2.476,16.413,16.413,0,0,0-3.451,3.838,9.283,9.283,0,0,1-2.312-6.135m3.8,7.5a14.368,14.368,0,0,1,3.211-3.653,12.47,12.47,0,0,1,4.036-2.191,30.969,30.969,0,0,1,1.684,7.013,9.306,9.306,0,0,1-8.932-1.169m10.8.165a33.056,33.056,0,0,0-1.608-6.462,15.43,15.43,0,0,1,5.528.245,9.321,9.321,0,0,1-3.919,6.217" transform="translate(-3794.525 -1076.697)"/>
</svg>
