<svg xmlns="http://www.w3.org/2000/svg" width="23.652" height="13.493" viewBox="0 0 23.652 13.493">
  <path id="Tracciato_1286" data-name="Tracciato 1286" d="M4889.211,1142.146h1.415a1.191,1.191,0,0,0,.644-.282,1.038,1.038,0,0,0,.195-.621s-.028-1.9.853-2.176,1.981,1.833,3.164,2.644a2.24,2.24,0,0,0,1.573.48l3.157-.044s1.652-.1.869-1.4a10.573,10.573,0,0,0-2.35-2.718c-1.979-1.837-1.715-1.541.671-4.721,1.453-1.936,2.033-3.118,1.853-3.625-.174-.483-1.241-.354-1.241-.354l-3.558.022a.811.811,0,0,0-.459.08.982.982,0,0,0-.313.383,20.535,20.535,0,0,1-1.314,2.772c-1.583,2.691-2.217,2.832-2.476,2.666-.6-.391-.452-1.564-.452-2.4,0-2.606.4-3.693-.77-3.973a6,6,0,0,0-1.658-.165,7.66,7.66,0,0,0-2.952.3c-.4.2-.716.64-.527.665a1.6,1.6,0,0,1,1.051.529,3.433,3.433,0,0,1,.351,1.608s.21,3.068-.489,3.449c-.479.262-1.137-.273-2.549-2.712a22.76,22.76,0,0,1-1.268-2.631,1.059,1.059,0,0,0-.293-.4,1.477,1.477,0,0,0-.547-.221l-3.378.022s-.508.014-.695.235c-.165.2-.012.6-.012.6s2.645,6.19,5.64,9.309a8.115,8.115,0,0,0,5.867,2.673" transform="translate(-4877.639 -1128.709)" fill-rule="evenodd"/>
</svg>
