<svg xmlns="http://www.w3.org/2000/svg" width="192.804" height="60.171" viewBox="0 0 192.804 60.171">
  <g id="Raggruppa_817" data-name="Raggruppa 817" transform="translate(1460.646 -754.731)">
    <path id="Tracciato_1033" data-name="Tracciato 1033" d="M2.836,19.438H14.845a2.772,2.772,0,0,1,2.839,2.837,2.611,2.611,0,0,1-.812,1.95,2.8,2.8,0,0,1-2.027.786H2.836A2.768,2.768,0,0,1,0,22.173a2.609,2.609,0,0,1,.809-1.95,2.8,2.8,0,0,1,2.027-.786M8.259,13.1a2.825,2.825,0,0,1,2.152.886,3.093,3.093,0,0,1,.838,2.2V38.742a2.176,2.176,0,0,0,.278,1.164,1.586,1.586,0,0,0,.758.66,2.671,2.671,0,0,0,1.039.2,2.716,2.716,0,0,0,1.116-.227,2.8,2.8,0,0,1,1.165-.228,1.717,1.717,0,0,1,1.292.658,2.735,2.735,0,0,1-.963,4.156,6.423,6.423,0,0,1-3.319.911,17.385,17.385,0,0,1-2.357-.176A6.345,6.345,0,0,1,7.828,45a5.266,5.266,0,0,1-1.9-2.1A8.331,8.331,0,0,1,5.166,39v-22.8A3.03,3.03,0,0,1,8.259,13.1" transform="translate(-1460.646 758.73)"/>
    <path id="Tracciato_1034" data-name="Tracciato 1034" d="M38.273,17.18a2.952,2.952,0,0,1,2.178.861,3.02,3.02,0,0,1,.861,2.229V41.7a3.041,3.041,0,0,1-.861,2.2,3.12,3.12,0,0,1-4.357,0,3.037,3.037,0,0,1-.863-2.2V39.222l1.116.455a2.856,2.856,0,0,1-.71,1.6,9.717,9.717,0,0,1-1.925,1.849,11.8,11.8,0,0,1-2.863,1.547,9.91,9.91,0,0,1-3.571.633,11.566,11.566,0,0,1-6.334-1.8,12.614,12.614,0,0,1-4.484-4.965,15.519,15.519,0,0,1-1.647-7.271,15.637,15.637,0,0,1,1.647-7.322,12.779,12.779,0,0,1,4.432-4.965,11.163,11.163,0,0,1,6.181-1.8,11.694,11.694,0,0,1,4,.66,11.932,11.932,0,0,1,3.168,1.672,9.628,9.628,0,0,1,2.078,2.052,3.272,3.272,0,0,1,.733,1.748l-1.825.658v-3.7a3.037,3.037,0,0,1,.863-2.2,2.913,2.913,0,0,1,2.178-.886M28.037,39.727a6.873,6.873,0,0,0,3.9-1.113,7.534,7.534,0,0,0,2.609-3.041,9.716,9.716,0,0,0,.938-4.307,9.841,9.841,0,0,0-.938-4.357,7.542,7.542,0,0,0-2.609-3.041,6.875,6.875,0,0,0-3.9-1.116,6.778,6.778,0,0,0-3.849,1.116,7.515,7.515,0,0,0-2.61,3.041,9.824,9.824,0,0,0-.938,4.357,9.7,9.7,0,0,0,.938,4.307,7.507,7.507,0,0,0,2.61,3.041,6.776,6.776,0,0,0,3.849,1.113" transform="translate(-1456.126 759.973)"/>
    <path id="Tracciato_1035" data-name="Tracciato 1035" d="M52.042,17.18a11.543,11.543,0,0,1,6.359,1.8,12.759,12.759,0,0,1,4.46,4.94,15.514,15.514,0,0,1,1.647,7.3,15.663,15.663,0,0,1-1.647,7.32A12.85,12.85,0,0,1,58.451,43.5a11.112,11.112,0,0,1-6.207,1.8,10.84,10.84,0,0,1-3.8-.659,12.09,12.09,0,0,1-3.115-1.672,9.482,9.482,0,0,1-2.078-2.052,3.25,3.25,0,0,1-.733-1.749l1.57-.658V51.838a3.044,3.044,0,0,1-.861,2.2,2.912,2.912,0,0,1-2.18.886,2.952,2.952,0,0,1-2.18-.861,3.016,3.016,0,0,1-.861-2.229V20.778a3.039,3.039,0,0,1,.861-2.2,3.123,3.123,0,0,1,4.359,0,3.044,3.044,0,0,1,.861,2.2v2.482l-.861-.455a2.84,2.84,0,0,1,.709-1.6,10.173,10.173,0,0,1,1.926-1.874,10.983,10.983,0,0,1,2.813-1.547,9.36,9.36,0,0,1,3.369-.608m-.761,5.573a6.874,6.874,0,0,0-3.9,1.116,7.576,7.576,0,0,0-2.61,3.014,9.692,9.692,0,0,0-.936,4.334,9.889,9.889,0,0,0,.936,4.332,7.49,7.49,0,0,0,2.61,3.066,6.872,6.872,0,0,0,3.9,1.113,6.75,6.75,0,0,0,3.876-1.113,7.564,7.564,0,0,0,2.585-3.066,9.87,9.87,0,0,0,.936-4.332,9.674,9.674,0,0,0-.936-4.334,7.652,7.652,0,0,0-2.585-3.014,6.752,6.752,0,0,0-3.876-1.116" transform="translate(-1449.049 759.973)"/>
    <path id="Tracciato_1036" data-name="Tracciato 1036" d="M73.139,47.256a13.2,13.2,0,0,1-6.462-1.571,12.3,12.3,0,0,1-4.509-4.1,9.755,9.755,0,0,1-1.647-5.42,11.869,11.869,0,0,1,.886-4.637A10.446,10.446,0,0,1,64.094,27.8a15.233,15.233,0,0,1,4.585-2.738l3.952,4.106q-3.547.76-4.738,2.3A6,6,0,0,0,66.7,35.247a6.278,6.278,0,0,0,.758,2.965,5.853,5.853,0,0,0,2.482,2.382,9.684,9.684,0,0,0,4.612.937,8.454,8.454,0,0,0,4.282-1.09,11.17,11.17,0,0,0,3.293-2.89,16.588,16.588,0,0,0,2.28-4A18.516,18.516,0,0,0,85.6,29.065a1.915,1.915,0,0,1,.636-1.266,2.77,2.77,0,0,1,1.8-.457,2.42,2.42,0,0,1,2.079,1.064,3.322,3.322,0,0,1,.556,2.484,23.02,23.02,0,0,1-1.748,5.953,19.454,19.454,0,0,1-3.446,5.27,15.892,15.892,0,0,1-5.218,3.75,17.081,17.081,0,0,1-7.119,1.394m18.038-.406a3.082,3.082,0,0,1-1.039-.153,2.3,2.3,0,0,1-.685-.355q-3.645-3.138-6.663-5.8t-5.548-5.09q-2.533-2.435-4.764-4.967-1.772-2.026-3.242-3.647a18.344,18.344,0,0,1-2.354-3.168,6.74,6.74,0,0,1-.889-3.421,8.586,8.586,0,0,1,1.344-4.636,10,10,0,0,1,3.824-3.5,12.2,12.2,0,0,1,5.878-1.342,16.378,16.378,0,0,1,6.309,1.165,6.931,6.931,0,0,1,3.774,3.091,3.578,3.578,0,0,1,.255.634,4.126,4.126,0,0,1,.2,1.342,2.29,2.29,0,0,1-.709,1.673,2.6,2.6,0,0,1-1.926.709,2.263,2.263,0,0,1-1.265-.3,3.346,3.346,0,0,1-.711-.608,6.1,6.1,0,0,0-2.559-2.054,8.977,8.977,0,0,0-3.369-.581,4.646,4.646,0,0,0-3.47,1.214,3.988,3.988,0,0,0-1.192,2.89,5.286,5.286,0,0,0,1.116,3.117,20.557,20.557,0,0,0,2.558,2.913q1.445,1.368,2.407,2.431,1.57,1.672,3.521,3.572t3.927,3.7q1.977,1.8,3.674,3.345t2.762,2.558a4.842,4.842,0,0,1,.987,1.216,3.039,3.039,0,0,1,.33,1.471,3.315,3.315,0,0,1-.583,1.62,2.044,2.044,0,0,1-1.9.963" transform="translate(-1442.179 758.019)"/>
    <path id="Tracciato_1037" data-name="Tracciato 1037" d="M87.792,19.438H99.8a2.774,2.774,0,0,1,2.84,2.837,2.607,2.607,0,0,1-.813,1.95,2.8,2.8,0,0,1-2.027.786H87.792a2.77,2.77,0,0,1-2.837-2.837,2.6,2.6,0,0,1,.81-1.95,2.8,2.8,0,0,1,2.027-.786M93.215,13.1a2.827,2.827,0,0,1,2.152.886,3.1,3.1,0,0,1,.838,2.2V38.742a2.188,2.188,0,0,0,.277,1.164,1.592,1.592,0,0,0,.758.66,2.68,2.68,0,0,0,1.039.2,2.722,2.722,0,0,0,1.117-.227,2.791,2.791,0,0,1,1.164-.228,1.72,1.72,0,0,1,1.293.658,2.735,2.735,0,0,1-.965,4.156,6.416,6.416,0,0,1-3.319.911,17.4,17.4,0,0,1-2.357-.176A6.36,6.36,0,0,1,92.783,45a5.266,5.266,0,0,1-1.9-2.1,8.331,8.331,0,0,1-.761-3.9v-22.8A3.03,3.03,0,0,1,93.215,13.1" transform="translate(-1434.723 758.73)"/>
    <path id="Tracciato_1038" data-name="Tracciato 1038" d="M104.922,16.453a4.01,4.01,0,0,1-2.43-.556,2.378,2.378,0,0,1-.709-1.976V12.96a2.253,2.253,0,0,1,.783-2,4.342,4.342,0,0,1,2.408-.532,4.135,4.135,0,0,1,2.482.557,2.386,2.386,0,0,1,.709,1.977v.962a2.287,2.287,0,0,1-.76,2,4.445,4.445,0,0,1-2.484.531m3.093,27.313a3.042,3.042,0,0,1-.863,2.2,3.122,3.122,0,0,1-4.358,0,3.036,3.036,0,0,1-.861-2.2V22.839a3.034,3.034,0,0,1,.861-2.2,3.122,3.122,0,0,1,4.358,0,3.04,3.04,0,0,1,.863,2.2Z" transform="translate(-1429.589 757.912)"/>
    <path id="Tracciato_1039" data-name="Tracciato 1039" d="M123.792,45.3a14.878,14.878,0,0,1-7.472-1.8,12.429,12.429,0,0,1-4.866-4.889,14.293,14.293,0,0,1-1.7-6.993,15.359,15.359,0,0,1,1.848-7.777,13.073,13.073,0,0,1,4.841-4.94,12.484,12.484,0,0,1,6.334-1.723,11.525,11.525,0,0,1,4.886,1.064,13.373,13.373,0,0,1,4.082,2.913,14.235,14.235,0,0,1,2.807,4.282,13.009,13.009,0,0,1,1.04,5.168,2.607,2.607,0,0,1-.962,1.976,3.232,3.232,0,0,1-2.127.761H113.154l-1.522-5.068h18.6l-1.113,1.014V27.921a4.663,4.663,0,0,0-1.039-2.635,6.811,6.811,0,0,0-2.335-1.849,6.634,6.634,0,0,0-2.96-.684,9.627,9.627,0,0,0-2.841.406,5.443,5.443,0,0,0-2.28,1.369,6.658,6.658,0,0,0-1.518,2.583,12.846,12.846,0,0,0-.556,4.1,8.861,8.861,0,0,0,1.138,4.636,7.745,7.745,0,0,0,2.939,2.888,7.827,7.827,0,0,0,3.827.987,11.823,11.823,0,0,0,2.99-.3,6.757,6.757,0,0,0,1.8-.733c.454-.287.871-.532,1.241-.736a3.87,3.87,0,0,1,1.724-.455,2.551,2.551,0,0,1,2.582,2.533,3.152,3.152,0,0,1-1.419,2.482,11.743,11.743,0,0,1-3.7,1.951,14.7,14.7,0,0,1-4.915.837" transform="translate(-1427.155 759.973)"/>
    <path id="Tracciato_1040" data-name="Tracciato 1040" d="M121.731,3.273A2.373,2.373,0,0,1,123.943,0a32.034,32.034,0,0,1,31.771,32.224,2.372,2.372,0,1,1-4.744-.034A27.284,27.284,0,0,0,123.909,4.744a2.372,2.372,0,0,1-2.178-1.471" transform="translate(-1423.556 754.731)"/>
    <path id="Tracciato_1041" data-name="Tracciato 1041" d="M121.672,11.689a2.373,2.373,0,0,1,2.212-3.273,21.037,21.037,0,0,1,20.865,21.163A2.372,2.372,0,0,1,140,29.545,16.29,16.29,0,0,0,123.85,13.16a2.372,2.372,0,0,1-2.178-1.471" transform="translate(-1423.574 757.299)"/>
  </g>
</svg>
